<?xml version="1.0" standalone="no"?>
<!DOCTYPE svg PUBLIC "-//W3C//DTD SVG 1.1//EN" "http://www.w3.org/Graphics/SVG/1.1/DTD/svg11.dtd" >
<!--
2013-9-30: Created.
-->
<svg>
<metadata>
Created by iconfont
</metadata>
<defs>

<font id="iconfont" horiz-adv-x="1024" >
  <font-face
    font-family="iconfont"
    font-weight="500"
    font-stretch="normal"
    units-per-em="1024"
    ascent="896"
    descent="-128"
  />
    <missing-glyph />
    
    <glyph glyph-name="star-list" unicode="&#58888;" d="M431.524864 599.382016l454.747136 0c39.734272 0 71.88992 32.210944 71.88992 71.918592 0 39.707648-32.155648 71.903232-71.88992 71.903232L431.524864 743.20384c-39.71584 0-71.912448-32.195584-71.912448-71.903232C359.612416 631.59296 391.808 599.382016 431.524864 599.382016zM222.261248 743.20384l-86.244352 0c-39.723008 0-71.918592-32.195584-71.918592-71.903232 0-39.707648 32.195584-71.918592 71.918592-71.918592l86.244352 0c39.7312 0 71.926784 32.210944 71.926784 71.918592C294.188032 711.008256 261.992448 743.20384 222.261248 743.20384zM886.272 455.561216L431.524864 455.561216c-39.71584 0-71.912448-32.195584-71.912448-71.903232 0-39.709696 32.195584-71.918592 71.912448-71.918592l454.747136 0c39.734272 0 71.88992 32.208896 71.88992 71.918592C958.16192 423.364608 926.005248 455.561216 886.272 455.561216zM222.261248 455.561216l-86.244352 0c-39.723008 0-71.918592-32.195584-71.918592-71.903232 0-39.709696 32.195584-71.918592 71.918592-71.918592l86.244352 0c39.7312 0 71.926784 32.208896 71.926784 71.918592C294.188032 423.364608 261.992448 455.561216 222.261248 455.561216zM886.272 167.93088L431.524864 167.93088c-39.71584 0-71.912448-32.207872-71.912448-71.9104 0-39.71584 32.195584-71.917568 71.912448-71.917568l454.747136 0c39.734272 0 71.88992 32.201728 71.88992 71.917568C958.16192 135.72300800000005 926.005248 167.93088 886.272 167.93088zM222.261248 167.93088l-86.244352 0c-39.723008 0-71.918592-32.207872-71.918592-71.9104 0-39.71584 32.195584-71.917568 71.918592-71.917568l86.244352 0c39.7312 0 71.926784 32.201728 71.926784 71.917568C294.188032 135.72300800000005 261.992448 167.93088 222.261248 167.93088z"  horiz-adv-x="1024" />

    
    <glyph glyph-name="receive" unicode="&#58898;" d="M899.47933877 379.98422286000005L725.25666201 609.97718731c-4.80634102 6.35688984-12.32974072 10.08846035-20.31452666 10.08846035L580.19491426 620.06564766l-1e-8-50.97923614 112.07841065 0 161.39917178-213.05564824 0-310.89941015L169.79236719 45.13135312999998 169.79236719 356.03076328l161.4000709 213.05564825 116.45574258-1e-8 0 50.97923614L318.50923643 620.06564766c-7.98478594 0-15.49469443-3.73156963-20.31542578-10.08846036L123.98732247 379.98422286000005c-3.34753067-4.40521348-5.15890195-9.82673789-5.15890197-15.37057882l0-344.95751865c0-14.08085333 11.40966387-25.52019698 25.49051719-25.52019697l734.8449753 0c14.0799542 0 25.48871895 11.43934453 25.48871894 25.52019697L904.65263193 364.61364404000005C904.65263193 370.15748497000004 902.84215888 375.57900938 899.47933877 379.98422286000005zM616.97097969 345.14454434000004l0-80.7085793-210.47529815 0 0 80.7085793c0 8.45966426-6.84885674 15.27794122-15.27884121 15.27794121L262.00234883 360.42248555000003l101.74351817 136.98432422 3.57777422 0c-2.62532021 10.10464893-1.75021347 20.83707247 2.76472529 30.58826132L356.06777188 527.99507109c-4.85221026 0-9.39682881-2.27275927-12.28477061-6.15812519l-124.48459951-167.58787501c-3.45455771-4.6525456-3.97800263-10.84124971-1.39765254-15.98396308 2.59653955-5.17329229 7.89214922-8.42998447 13.68152403-8.42998447l144.32514784 0 0-80.70768017c0-8.44707305 6.84885674-15.27794122 15.308521-15.27794122l241.03477881 0c8.47495371 0 15.29323154 6.83176817 15.29323154 15.27794121l0 80.70768018 144.33863818 0c5.80376513 0 11.08768271 3.25669219 13.68152402 8.42998447 2.59564043 5.1436125 2.04251484 11.33231661-1.39585341 15.98396309L679.66747138 521.8369467800001c-2.87085322 3.88446592-7.43256035 6.15812519-12.2847706 6.15812519l-9.61268291 0c4.63635615-10.01111221 5.42062441-21.0978958 2.54887207-31.40220937l101.16161279-136.17037617L632.25072002 360.42248555000003C623.80274786 360.42248555000003 616.97097969 353.60420859 616.97097969 345.14454434000004zM398.04950849 515.83351699c-2.59564043-5.12832305-2.10277441-11.28554825 1.25914659-15.93809384l1.78169238-2.4886125L501.54413926 359.13276006c2.8879418-3.97710352 7.46403926-6.31102148 12.37740821-6.31102149 4.8980795 0 9.48946641 2.33391797 12.37650907 6.31102149l100.4546918 138.27405059 1.78079238 2.4886125c3.39339902 4.6525456 3.87007646 10.8097708 1.25824658 15.93809384-2.59564043 5.11393271-7.86156943 8.33824688-13.63475566 8.33824687L549.60755205 524.17176387l0 3.8233081 0 41.09134043 0 50.97923614L549.60755205 710.83120839c0 19.68495381-15.97047188 35.68600459-35.68690459 35.6860046s-35.68510547-16.00105166-35.68510547-35.68600459l0-90.76556074 0-50.97923613 0-41.09134044 0-3.8233081-66.56566816 0C405.92726739 524.17086386 400.67572783 520.94655058 398.04950849 515.83351699z"  horiz-adv-x="1024" />

    
    <glyph glyph-name="send-out" unicode="&#58899;" d="M898.91542109 378.47324676999995L724.33838428 608.95008428c-4.80004541 6.35778984-12.34772842 10.09385596-20.37118799 10.09385595l-61.06859561 0 9.35096046-12.84059443c8.14937432-11.25047197 10.58852109-25.18652373 7.31653945-38.24297138l31.72958701 0L853.01684053 354.49100741999996l-1e-8-311.52988301L167.77773301 42.961124410000025 167.77773301 354.49100741999996l161.70676259 213.46846875 36.14469434 0c-3.30256055 13.05644766-0.83373487 26.99249942 7.31564034 38.2123916l9.35275868 12.87207246-65.52867128 0c-7.99377979 0-15.52527422-3.73516787-20.37118799-10.10914629L121.86476211 378.47324676999995c-3.37900869-4.44298799-5.16969492-9.84472558-5.16969492-15.41644804l0-345.6239669c0-14.13481641 11.43574629-25.58585302 25.510304-25.58585302l736.33796279 0c14.12132607 0 25.54178291 11.45103662 25.54178292 25.58585302L904.08511602 363.05769872999997C904.08511602 368.62852207000003 902.29443066 374.03025966999996 898.91542109 378.47324676999995zM389.6114293 232.03003593999995l241.55642461 0c8.45696602 0 15.34179815 6.88303301 15.34179814 15.35528935l0 80.83899141 144.60755625 0c5.8010669 0 11.07958799 3.28727109 13.70400909 8.44257569 2.59204219 5.17059404 2.06679902 11.35839902-1.39045694 16.03522792L678.65655693 520.62816592c-2.88614356 3.85748438-7.45414628 6.15722519-12.2847706 6.1572252l-87.36766435 0 0-30.64942003 79.63560703 0 101.98005732-137.25953789L631.16785391 358.87643407999997c-8.47225547 0-15.3399999-6.85335323-15.3399999-15.32650869l0-80.85338174L404.95232832 262.69654364999997l0 80.85338174c0 8.47315547-6.8524541 15.32650869-15.34089902 15.32650869L260.1442083 358.87643407999997l101.98185644 137.2595379 84.03272579 0 0 30.64942001-91.76478311 0c-4.84591464 0-9.39862793-2.29974083-12.2847706-6.15722519L217.36381309 352.70212031000005c-3.47254541-4.67682891-3.99689033-10.86463388-1.37336924-16.03522792 2.57765273-5.15440547 7.87056416-8.44257568 13.65813984-8.44257569l144.62194658 0 1e-8-80.83899141C374.27053028 238.91306894000002 381.15356416 232.03003593999995 389.6114293 232.03003593999995zM399.85908154 567.95947529c2.77731738-2.56146328 6.38926787-4.12010684 10.27823116-4.12010683l66.70147675 0 0-37.05487647 0-30.64942002 0-119.32839492c0-19.7703958 15.98845957-35.74356592 35.74356592-35.74356592 19.76949667 0 35.75795625 15.97317011 35.75795625 35.74356592L548.34031162 496.13597198l0 30.64942002 0 37.05487646 66.70147676 0c3.92134131 0 7.5162041 1.55864356 10.30881094 4.12010683 1.31310967 1.21957295 2.50030459 2.5632624 3.31875 4.22893301 2.65320088 5.13911602 2.16123487 11.32782011-1.21957296 15.97317012l-22.45417646 30.8814627-80.00525654 110.16001142c-2.87085322 3.95102109-7.50091464 6.32721006-12.40798711 6.32721006-4.90797247 0-9.52274356-2.37708809-12.39269766-6.32721006l-80.00525654-110.16001142-22.45507559-30.8814627c-3.37900869-4.64535088-3.85838437-10.8340541-1.23396328-15.97317012C397.31290771 570.5227377 398.53158154 569.1799482399999 399.85908154 567.95947529z"  horiz-adv-x="1024" />

    
    <glyph glyph-name="admin-repeal" unicode="&#59329;" d="M472.72587822 777.48321856L125.93989883 424.83591357l346.78597939-348.95890547L472.72587822 297.30328037000004c0 0 402.83777637 205.40543555 368.13750293-306.78649893 0 0 272.13299385 488.18271182-370.79430117 584.25017872L472.72587822 777.48321856z"  horiz-adv-x="1024" />

    
    <glyph glyph-name="star-discuss" unicode="&#58927;" d="M286.077016 606.352157c-26.568099 0-48.182372-21.600971-48.182372-48.151673 0-26.568099 21.614274-48.183396 48.182372-48.183396 26.569122 0 48.184419 21.615297 48.184419 48.183396C334.262458 584.75221 312.646138 606.352157 286.077016 606.352157zM419.834392 606.352157c-26.568099 0-48.183396-21.600971-48.183396-48.151673 0-26.568099 21.615297-48.183396 48.183396-48.183396 26.550703 0 48.151673 21.615297 48.151673 48.183396C467.986065 584.75221 446.385095 606.352157 419.834392 606.352157zM553.591769 601.99185c-26.569122 0-48.184419-21.61632-48.184419-48.184419 0-26.550703 21.615297-48.15065 48.184419-48.15065 26.549679 0 48.15065 21.599947 48.15065 48.15065C601.742419 580.3765530000001 580.142471 601.99185 553.591769 601.99185zM869.579513 514.427538L773.79703 514.427538 773.79703 718.557682c0 57.651025-46.90324 104.554264-104.556311 104.554264L170.396343 823.111946c-57.633628 0-104.522542-46.902216-104.522542-104.554264l0-336.572572c0-57.043181 45.9004-103.563704 102.696963-104.539938l-1.116427-150.198837L384.239709 276.988778l0-118.800733c0-48.761564 39.670511-88.432075 88.431052-88.432075l224.653573 0 179.914626-124.307144-0.884137 124.563994c45.605687 3.473101 81.653695 41.693588 81.653695 88.175225L958.008518 425.998533C958.008518 474.759073 918.340053 514.427538 869.579513 514.427538zM368.913653 328.66369399999996l-149.515269-103.256712 0.766456 103.256712-49.767474 0c-29.384237 0-53.290717 23.919782-53.290717 53.321416L117.10665 718.557682c0 29.402657 23.905456 53.323463 53.290717 53.323463l498.844376 0c29.401634 0 53.322439-23.920806 53.322439-53.323463l0-336.572572c0-29.401634-23.920806-53.321416-53.322439-53.321416L368.913653 328.66369399999996zM906.777717 158.188045c0-20.511149-16.687054-37.198204-37.198204-37.198204l-44.843324 0 0.565888-77.382415-112.014166 77.382415L472.670761 120.98984099999996c-20.511149 0-37.199227 16.687054-37.199227 37.198204L435.471534 277.428799l233.768161 0c57.653071 0 104.556311 46.904263 104.556311 104.556311l0 81.210603 95.783507 0c20.511149 0 37.198204-16.687054 37.198204-37.19718L906.777717 158.188045z"  horiz-adv-x="1024" />

    
    <glyph glyph-name="admin-reload" unicode="&#59005;" d="M904.76123012 423.55078125L761.38964809 601.52929688c-14.83154297 19.77539063-44.49462891 19.77539063-59.32617187-1e-8L558.69189418 423.55078125c-9.88769531-14.83154297 0-34.60693359 14.83154297-34.60693359l54.38232422 0c0-103.82080078 0-237.3046875-187.86621094-346.06933594-4.94384766-4.94384766 0-9.88769531 4.94384766-9.88769531 351.01318359 54.38232422 380.67626953 291.68701172 380.67626953 355.95703125l59.32617188 0C904.76123012 388.94384766 914.64892543 408.71923828 904.76123012 423.55078125L904.76123012 423.55078125 904.76123012 423.55078125zM454.8710934 379.05615234000004L395.54492153 379.05615234000004c0 103.82080078 0 237.3046875 187.86621094 346.06933594 4.94384766 4.94384766 0 9.88769531-4.94384766 9.88769531C227.45410122 680.63085938 197.79101528 443.32617188 197.79101528 379.05615234000004L138.4648434 379.05615234000004C118.68945278 379.05615234000004 108.80175747 359.28076172 123.63330043 344.44921875L267.00488247 166.47070312000005c14.83154297-19.77539063 44.49462891-19.77539063 59.32617187 1e-8l143.37158203 177.97851562C479.59033168 359.28076172 469.70263637 379.05615234000004 454.8710934 379.05615234000004L454.8710934 379.05615234000004 454.8710934 379.05615234000004z"  horiz-adv-x="1027" />

    
    <glyph glyph-name="star-new" unicode="&#58936;" d="M1006.762667 452.317867l-129.0752-324.488533-109.806933 0c4.864 39.645867 12.151467 91.886933 21.8624 156.740267-10.5472-28.535467-22.186667-57.309867-34.9696-86.3232l-30.3616-70.417067-110.062933 0 45.806933 324.488533 87.1936 0c-1.655467-8.482133-11.2128-70.417067-28.689067-185.838933 4.352 11.8784 28.859733 73.8304 73.5232 185.838933l83.7632 0L845.653333 266.496c18.0736 54.272 42.734933 116.206933 74.001067 185.838933L1006.762667 452.334933zM608.768 292.1984l-138.666667 0-20.309333-78.4384c-4.2496-16.401067-5.8368-26.965333-4.7616-31.709867 1.0752-4.744533 4.881067-7.099733 11.4176-7.099733 8.123733 0 14.370133 3.140267 18.7392 9.4208 4.369067 6.280533 8.891733 18.449067 13.550933 36.488533l12.3904 47.8208 101.546667 0-6.929067-26.7776c-5.802667-22.408533-11.6224-39.6288-17.476267-51.6608-5.853867-12.032-15.581867-24.866133-29.201067-38.536533-13.6192-13.6704-29.0304-23.9104-46.267733-30.737067-17.237333-6.826667-37.512533-10.257067-60.842667-10.257067-22.6304 0-41.728 3.3792-57.309867 10.103467-15.581867 6.741333-26.658133 15.991467-33.245867 27.733333-6.587733 11.758933-9.915733 24.695467-9.966933 38.8096-0.0512 14.114133 3.413333 34.6624 10.3936 61.627733l27.374933 105.762133c8.209067 31.709867 18.8416 56.712533 31.880533 75.025067 13.038933 18.312533 30.293333 32.341333 51.729067 42.0864 21.435733 9.745067 44.4416 14.626133 69.000533 14.626133 30.0544 0 53.316267-5.870933 69.802667-17.629867 16.4864-11.758933 26.146133-27.323733 28.996267-46.728533 2.833067-19.4048-0.290133-46.6944-9.386667-81.851733L608.768 292.1984zM520.209067 422.280533c-7.424 0-12.629333-2.321067-15.581867-6.9632-2.9696-4.642133-7.099733-17.169067-12.373333-37.5808L485.376 351.23199999999997l31.2832 0 6.8608 26.504533c4.864 18.773333 7.0144 30.890667 6.485333 36.352C529.493333 419.549867 526.216533 422.280533 520.209067 422.280533zM431.342933 495.496533c-23.6032-10.376533-42.5984-25.2928-56.951467-44.782933-14.370133-19.490133-26.077867-46.08-35.106133-79.8208l-30.1568-112.5376c-7.68-28.689067-11.502933-50.551467-11.434667-65.570133 0.068267-15.018667 3.720533-28.791467 10.973867-41.284267 7.253333-12.509867 19.456-22.340267 36.608-29.508267 0.7168-0.290133 1.536-0.494933 2.2528-0.785067l-2.884267-10.496-128.529067 0-7.867733 248.4736L139.844267 110.72853299999997 17.237333 110.72853299999997l150.493867 546.56 122.606933 0 14.4384-246.101333 67.771733 246.101333 122.606933 0-42.427733-154.112C445.457067 501.009067 438.289067 498.551467 431.342933 495.496533z"  horiz-adv-x="1024" />

    
    <glyph glyph-name="star-add" unicode="&#58904;" d="M144.50000029 670.49999971L62 670.49999971l0-654.00000029c0-45 37.50000029-82.50000029 82.50000029-82.5000003l654.00000029 0 0 82.5000003L144.50000029 16.500000290000003 144.50000029 670.49999971zM879.49999971 834L307.99999971 834c-45 0-82.50000029-37.50000029-82.50000029-82.50000029l0-573.0000003c0-45 37.50000029-82.50000029 82.50000029-82.50000029l573.00000029 0c45 0 82.50000029 37.50000029 82.50000029 82.50000029L963.50000029 751.49999971C962 796.49999971 924.49999971 834 879.49999971 834zM798.49999971 424.5L635.00000029 424.5l0-163.50000029-82.50000029 0L552.5 424.5 388.99999971 424.5l0 82.50000029 163.50000029 0L552.5 670.49999971l82.50000029 0 0-163.50000029 163.50000029 0L798.49999971 424.5z"  horiz-adv-x="1026" />

    
    <glyph glyph-name="star-finish" unicode="&#58964;" d="M486.4 265.6c-19.2-19.2-48-19.2-67.2-3.2l-137.6 131.2-32-35.2 137.6-131.2c38.4-35.2 96-35.2 134.4 3.2l281.6 297.6-35.2 32L486.4 265.6zM512 844.8c-252.8 0-460.8-204.8-460.8-460.8s204.8-460.8 460.8-460.8 460.8 204.8 460.8 460.8S764.8 844.8 512 844.8zM512-28.799999999999955c-227.2 0-412.8 185.6-412.8 412.8s185.6 412.8 412.8 412.8 412.8-185.6 412.8-412.8S739.2-28.799999999999955 512-28.799999999999955z"  horiz-adv-x="1024" />

    
    <glyph glyph-name="star-statistics" unicode="&#58907;" d="M916.659785 7.30154600000003L104.554776 7.30154600000003c-23.223934 0-42.006719 18.806321-42.006719 42.007743L62.548056 721.369727c0 23.199375 18.782785 41.99444 42.006719 41.99444 23.176862 0 42.006719-18.794042 42.006719-41.99444l0-532.050662 0-98.005105 770.099313 0c23.176862 0 42.007743-18.804275 42.007743-42.004673C958.666504 26.107867000000056 939.836647 7.30154600000003 916.659785 7.30154600000003M818.626028 133.31761100000006l-84.013439 0c-23.176862 0-42.007743 18.795065-42.007743 41.993416l0 294.02657c0 23.212678 18.829857 42.004673 42.007743 42.004673l84.013439 0c23.224957 0 42.008766-18.795065 42.008766-42.004673l0-294.02657C860.63377 152.11267599999996 841.852008 133.31761100000006 818.626028 133.31761100000006M580.602959 133.31761100000006l-84.013439 0c-23.200398 0-42.007743 18.795065-42.007743 41.993416L454.581778 637.358335c0 23.200398 18.807345 42.005696 42.007743 42.005696l84.013439 0c23.199375 0 42.006719-18.805298 42.006719-42.005696l0-462.046285C622.609679 152.11267599999996 603.803357 133.31761100000006 580.602959 133.31761100000006M342.578868 133.31761100000006l-84.013439 0c-23.223934 0-42.006719 18.795065-42.006719 41.993416l0 84.012416c0 23.198352 18.782785 42.004673 42.006719 42.004673l84.013439 0c23.200398 0 42.007743-18.806321 42.007743-42.004673l0-84.012416C384.585587 152.11267599999996 365.779266 133.31761100000006 342.578868 133.31761100000006"  horiz-adv-x="1024" />

    
    <glyph glyph-name="fabu" unicode="&#58929;" d="M1024 896 384 192 0 320 1024 896ZM1024 896 1024 0 483.414063 163.148435 1024 896ZM384 155.511718 364.578125 161.699219 512-128 606.945313 90.5 476.078125 128 496.279297-64 384 155.511718Z"  horiz-adv-x="1024" />

    
    <glyph glyph-name="star-attachment" unicode="&#58901;" d="M715.467833 688.222791c20.014382 20.945283-20.014382 62.789304-40.075308 41.844021L210.779599 244.648238c0 0-104.12133-108.822382-8.005753-209.220106 96.115577-100.444269 200.283452 8.378113 200.283452 8.378113L891.734028 554.3126139999999c0 0 128.185133 133.910177-8.005753 276.198467-136.190886 142.28829-264.376019 8.378113-264.376019 8.378113L130.675527 328.336281c0 0-184.225402-192.510425-8.005753-376.642737 176.219649-184.132312 360.491596 8.378113 360.491596 8.378113L971.8381 470.624571c20.014382 20.898738-20.014382 62.789304-40.075308 41.844021L443.132607 1.962223999999992c0 0-144.196638-150.666404-280.387524-8.378113-136.190886 142.28829 8.005753 292.908149 8.005753 292.908149L659.38102 797.045173c0 0 88.109825 92.066156 184.271947-8.378113 96.115577-100.444269 8.005753-192.510425 8.005753-192.510425L363.028535 85.65026599999999c0 0-64.092567-66.978361-120.17938-8.378113-56.086814 58.600248 8.005753 125.532064 8.005753 125.532064L715.467833 688.222791z"  horiz-adv-x="1024" />

    
    <glyph glyph-name="fabupingshenicon" unicode="&#58915;" d="M339.940784 160.656259l344.104105 0 0-49.622164-344.104105 0 0 49.622164ZM696.322517 222.702384c-29.624714 0-69.025073 12.101619-100.370988 30.80868-38.273698 22.8668-59.390645 51.588959-59.390645 80.859609 0 0 0.12689 66.604954 0.12689 77.965699 0 26.817786 4.589528 35.162848 37.642319 68.532863 23.151279 19.675108 35.972283 47.429219 35.972283 76.840062 0 54.730509-44.103474 99.270934-98.309026 99.270934-54.218856 0-98.329493-44.534286-98.329493-99.270934 0-29.442566 12.840446-57.202816 35.233456-76.107375 33.924647-34.233686 38.501896-42.971697 38.501896-72.786747l0-74.444503c0-65.605184-103.633289-111.668289-159.755494-111.668289-6.777357 0-12.283768-5.544273-12.283768-12.397355l0-24.827455 393.240199 0 0 24.827455C708.600145 217.158111 703.107037 222.702384 696.322517 222.702384zM502.091838 606.338854c-22.759353-4.684696-39.260166-25.163099-39.260166-48.624441 0-10.772344 3.363607-21.041222 9.736758-29.65132 4.058432-5.513574 2.939959-13.257955-2.491751-17.379832-2.206248-1.655709-4.786003-2.465145-7.346315-2.465145-3.743254 0-7.441483 1.731434-9.869788 5.019317-9.565866 12.897751-14.610766 28.316929-14.610766 44.470841 0 35.189454 24.771173 65.87636 58.897412 72.944336 6.739495 1.366114 13.150508-2.958378 14.516622-9.653871C513.010515 614.27971 508.743328 607.730551 502.091838 606.338854zM511.999488 832.16002c-247.512187 0-448.16002-200.646809-448.16002-448.158996S264.487302-64.158996 511.999488-64.158996c247.512187 0 448.16002 200.647833 448.16002 448.16002S759.511675 832.16002 511.999488 832.16002zM733.206566 173.07408c0-6.846942-5.500271-12.429077-12.297071-12.429077l-12.297071 0 0-62.021565c0-6.877641-5.480828-12.428054-12.277628-12.428054L327.650877 86.195384c-6.783497 0-12.290931 5.550413-12.290931 12.428054l0 62.021565-12.289907 0c-6.777357 0-12.277628 5.582135-12.277628 12.429077l0 37.22481c0 20.539802 16.526395 37.22481 36.858466 37.22481 50.842968 0 135.186935 42.049698 135.186935 86.846974l0 74.444503c0 20.970614 0 23.694655-30.524201 54.471612-27.172873 22.930245-43.212174 57.632605-43.212174 94.421486 0 68.430532 55.129598 124.097366 122.890888 124.097366 67.76129 0 122.883725-55.666834 122.883725-124.097366 0-36.788881-16.025998-71.453379-43.970444-95.111195-29.631878-30.017664-29.631878-32.711006-29.631878-50.254567 0-11.366885-0.13303-78.002538-0.13303-78.002538 0-44.7676 84.313268-86.811158 135.155213-86.811158 9.862625 0 19.11843-3.88754 26.098401-10.898211 6.941086-7.043417 10.797927-16.387225 10.810207-26.331715L733.204519 173.07408z"  horiz-adv-x="1024" />

    
    <glyph glyph-name="star-delete" unicode="&#58908;" d="M981.671173 583.6020659999999c-25.782498 60.159162-62.737412 116.021241-109.145908 162.429738S770.254689 830.25463 709.23611 856.037128c-125.474824 53.28383-272.435063 53.28383-397.909886 0-60.159162-25.782498-116.021241-62.737412-162.429738-109.145908S65.533075 643.761227 39.750578 583.6020659999999C13.96808 520.864654 0.217414 453.830159 0.217414 383.35799699999995s13.750665-137.506656 39.533163-200.244068c25.782498-60.159162 62.737412-116.021241 109.145908-162.429738 46.408496-46.408496 102.270576-83.36341 162.429738-109.145908 62.737412-25.782498 130.631324-39.533163 200.244068-39.533163s134.928406 13.750665 200.244068 39.533163c60.159162 25.782498 116.021241 62.737412 162.429738 109.145908 46.408496 46.408496 83.36341 102.270576 109.145908 162.429738 25.782498 62.737412 39.533163 130.631324 39.533163 200.244068S1007.453671 520.864654 981.671173 583.6020659999999zM936.981509 202.02109499999995c-23.204248-55.862079-55.862079-104.848826-99.692326-148.679072-42.111413-42.111413-92.816993-76.488078-148.679072-99.692326-114.302407-48.986746-246.652565-48.986746-362.673806 0-55.862079 23.204248-104.848826 58.440329-148.679072 99.692326-42.111413 42.111413-76.488078 92.816993-99.692326 148.679072-23.204248 58.440329-36.954914 118.599491-36.954914 181.336902 0 62.737412 12.031833 122.896574 36.954914 181.336902 23.204248 55.862079 55.862079 104.848826 99.692326 148.679072 42.111413 42.111413 92.816993 76.488078 148.679072 99.692326C383.517218 837.129962 444.535797 850.880629 507.273209 850.880629s122.896574-12.031833 181.336902-36.954914c55.862079-23.204248 104.848826-55.862079 148.679072-99.692326 42.111413-42.111413 76.488078-92.816993 99.692326-148.679072 23.204248-58.440329 36.954914-118.599491 36.954914-181.336902C974.79584 320.620586 962.764007 260.46142399999997 936.981509 202.02109499999995zM753.925773 595.633898L718.689693 627.432312 509.851459 416.015828 293.278475 632.588812 260.620644 599.930981 477.193628 383.35799699999995 264.917727 171.941513 297.575558 139.283683 509.851459 350.70016599999997 725.565025 134.98659999999995 758.222856 167.64443100000005 541.649873 383.35799699999995Z"  horiz-adv-x="1024" />

    
    <glyph glyph-name="star-tag" unicode="&#58942;" d="M932.987763 800L720.625878 800C670.569149 800 600.654688 771.041044 565.258512 735.644868L208.570182 378.956538C173.175902 343.56225900000004 173.175902 285.64245100000005 208.570182 250.24627499999997L474.246275-15.426025999999979C509.640554-50.82220199999995 567.560362-50.82220199999995 602.956538-15.426025999999979L959.641075 341.258512C995.041043 376.65468799999996 1024 446.569149 1024 496.625878L1024 708.987764C1024 759.044494 983.044493 800 932.987763 800L932.987763 800ZM811.638115 496.625878C761.372816 496.625878 720.625878 537.3728160000001 720.625878 587.6381160000001 720.625878 637.903415 761.372816 678.650352 811.638115 678.650352 861.903414 678.650352 902.650352 637.903415 902.650352 587.6381160000001 902.650352 537.3728160000001 861.903414 496.625878 811.638115 496.625878L811.638115 496.625878ZM74.653261 293.15285800000004L399.242714-31.43659500000001C364.862842-49.60112000000004 321.065098-44.273113999999964 292.221804-15.426025999999979L26.54571 250.24627499999997C-8.84857 285.64245100000005-8.84857 343.56225900000004 26.54571 378.956538L383.234038 735.644868C418.630214 771.041044 488.544678 800 538.601408 800L74.653261 336.05375000000004C62.8558 324.25439400000005 62.8558 304.95031700000004 74.653261 293.15285800000004L74.653261 293.15285800000004Z"  horiz-adv-x="1024" />

    
    <glyph glyph-name="anquan" unicode="&#59009;" d="M957.217391 809.627826C957.217391 809.627826 957.217391 287.788522 957.217391 287.788522 957.217391 256.489739 949.782261 225.369043 934.956522 194.426435 920.086261 163.394783 900.674783 133.431652 876.633043 104.314435 852.591304 75.241739 825.121391 47.682783 794.267826 21.726609 763.369739-4.274087 732.070957-27.425391 700.326957-47.727304 668.538435-68.073739 637.68487-84.992 607.721739-98.437565 577.758609-111.88313 551.490783-121.09913 528.918261-126.130087 528.918261-126.130087 518.233043-128 518.233043-128 518.233043-128 508.438261-126.130087 508.438261-126.130087 485.286957-121.09913 458.440348-111.88313 427.853913-98.437565 397.267478-84.992 365.523478-68.073739 332.577391-47.727304 299.631304-27.425391 267.308522-4.274087 235.52 21.726609 203.776 47.682783 175.415652 75.241739 150.483478 104.314435 125.551304 133.431652 105.382957 163.394783 89.978435 194.426435 74.48487 225.369043 66.782609 256.489739 66.782609 287.788522 66.782609 287.788522 66.782609 809.627826 66.782609 809.627826 66.782609 809.627826 103.290435 815.282087 103.290435 815.282087 103.290435 815.282087 512.890435 896 512.890435 896 512.890435 896 930.504348 815.282087 930.504348 815.282087 930.504348 815.282087 957.217391 809.627826 957.217391 809.627826 957.217391 809.627826 957.217391 809.627826 957.217391 809.627826ZM513.024 820.446609C513.024 820.446609 508.082087 821.470609 508.082087 821.470609 508.082087 821.470609 156.538435 758.472348 156.538435 758.472348 156.538435 758.472348 156.538435 429.234087 156.538435 429.234087 156.538435 429.234087 513.024 429.234087 513.024 429.234087 513.024 429.234087 513.024 820.446609 513.024 820.446609 513.024 820.446609 513.024 820.446609 513.024 820.446609ZM867.461565 429.234087C867.461565 429.234087 513.024 429.234087 513.024 429.234087 513.024 429.234087 513.024-39.401739 513.024-39.401739 535.81913-33.881043 560.617739-25.466435 587.419826-14.113391 614.177391-2.760348 640.623304 10.640696 666.713043 26.134261 692.847304 41.627826 717.957565 58.813217 742.13287 77.734957 766.308174 96.656696 787.634087 117.00313 806.288696 138.685217 824.898783 160.322783 839.724522 182.850783 850.810435 206.269217 861.94087 229.64313 867.461565 253.417739 867.461565 277.504 867.461565 277.504 867.461565 429.234087 867.461565 429.234087 867.461565 429.234087 867.461565 429.234087 867.461565 429.234087Z"  horiz-adv-x="1024" />

    
    <glyph glyph-name="star-task-content" unicode="&#59019;" d="M126.267392 521.8938880000001c-0.398336-0.39936-0.779264-0.816128-1.150976-1.241088-0.086016-0.099328-0.173056-0.197632-0.258048-0.297984-0.362496-0.428032-0.714752-0.86528-1.0496-1.316864-0.03584-0.048128-0.068608-0.09728-0.104448-0.146432-0.314368-0.43008-0.6144-0.872448-0.90112-1.321984-0.047104-0.073728-0.095232-0.146432-0.142336-0.221184-0.311296-0.499712-0.607232-1.00864-0.88576-1.529856-0.006144-0.012288-0.013312-0.0256-0.019456-0.038912-0.2816-0.531456-0.543744-1.074176-0.78848-1.626112-0.007168-0.017408-0.01536-0.033792-0.022528-0.0512-0.49152-1.117184-0.904192-2.275328-1.23392-3.468288-0.003072-0.012288-0.007168-0.024576-0.011264-0.037888-0.309248-1.128448-0.54272-2.287616-0.69632-3.472384-0.013312-0.099328-0.0256-0.197632-0.037888-0.29696-0.06656-0.566272-0.121856-1.13664-0.150528-1.714176 0-0.004096 0-0.008192 0-0.012288-0.021504-0.429056-0.032768-0.86016-0.032768-1.293312l0-393.216c0-98.81088 80.38912-179.2 179.2-179.2l428.032 0c98.81088 0 179.2 80.38912 179.2 179.2L905.213952 657.408c0 98.81088-80.38912 179.2-179.2 179.2L575.168512 836.608c-14.139392 0-25.6-11.461632-25.6-25.6s11.460608-25.6 25.6-25.6L726.016 785.408c70.5792 0 128-57.4208 128-128l0-546.816c0-70.5792-57.4208-128-128-128L297.984-17.408000000000015c-70.5792 0-128 57.4208-128 128L169.984 478.208l178.975744 0C419.662848 478.208 477.184 535.729152 477.184 606.432256L477.184 811.008c0 10.354688-6.237184 19.689472-15.803392 23.651328-9.56928 3.96288-20.578304 1.77152-27.89888-5.549056l-307.2-307.2C126.276608 521.905152 126.272512 521.899008 126.267392 521.8938880000001zM425.984 749.20448l0-142.772224C425.984 563.960832 391.431168 529.408 348.959744 529.408L206.18752 529.408 425.984 749.20448zM273.408 325.63199999999995c0-14.138368 11.461632-25.6 25.6-25.6l425.984 0c14.138368 0 25.6 11.461632 25.6 25.6s-11.461632 25.6-25.6 25.6L299.008 351.23199999999997C284.869632 351.23199999999997 273.408 339.77036799999996 273.408 325.63199999999995zM724.992 166.91200000000003L299.008 166.91200000000003c-14.138368 0-25.6-11.461632-25.6-25.6s11.461632-25.6 25.6-25.6l425.984 0c14.138368 0 25.6 11.461632 25.6 25.6S739.130368 166.91200000000003 724.992 166.91200000000003z"  horiz-adv-x="1024" />

    
    <glyph glyph-name="message" unicode="&#58994;" d="M923.691008 695.489536c-22.423552 22.423552-52.25984 34.772992-84.011008 34.772992L184.32 730.262528c-31.751168 0-61.586432-12.34944-84.011008-34.772992C77.88544 673.065984 65.536 643.23072 65.536 611.479552l0-393.216c0-31.751168 12.34944-61.587456 34.772992-84.011008 22.423552-22.423552 52.25984-34.772992 84.011008-34.772992l143.097856 0 0-79.331328 0-14.324736c0-27.4944 22.554624-46.379008 46.50496-46.379008 9.714688 0 19.65568 3.104768 28.419072 10.002432l11.25376 8.8576L567.652352 99.54304000000002l272.01536-0.063488c31.763456 0 61.599744 12.34944 84.023296 34.772992C946.11456 156.67609600000003 958.464 186.512384 958.464 218.263552l0 393.216C958.464 643.23072 946.11456 673.065984 923.691008 695.489536zM913.408 218.263552c0-19.716096-7.662592-38.237184-21.576704-52.151296-13.914112-13.914112-32.439296-21.576704-52.153344-21.576704l-272.01536 0.063488-15.608832 0.003072-12.266496-9.653248L385.729536 13.708288000000039l-11.25376-8.8576c-0.356352-0.279552-0.540672-0.351232-0.55296-0.351232 0 0-0.001024 0-0.001024 0-0.498688 0-1.236992 0.433152-1.386496 0.668672-0.001024 0.001024-0.062464 0.187392-0.062464 0.654336l0 14.324736 0 79.331328 0 45.056-45.056 0L184.32 144.53452800000002c-19.716096 0-38.237184 7.662592-52.151296 21.576704C118.254592 180.02636800000005 110.592 198.547456 110.592 218.263552l0 393.216c0 19.716096 7.662592 38.237184 21.577728 52.151296 13.913088 13.913088 32.434176 21.57568 52.150272 21.57568l655.36 0c19.71712 0 38.237184-7.662592 52.151296-21.576704C905.745408 649.716736 913.408 631.195648 913.408 611.479552L913.408 218.263552zM315.392 474.263552c-32.843776 0-59.392-26.548224-59.392-59.392 0-32.8448 26.548224-59.392 59.392-59.392s59.392 26.5472 59.392 59.392C374.784 447.715328 348.235776 474.263552 315.392 474.263552zM708.608 474.263552c-32.843776 0-59.392-26.548224-59.392-59.392 0-32.8448 26.548224-59.392 59.392-59.392 32.843776 0 59.392 26.5472 59.392 59.392C768 447.715328 741.451776 474.263552 708.608 474.263552zM512 474.263552c-32.843776 0-59.392-26.548224-59.392-59.392 0-32.8448 26.548224-59.392 59.392-59.392s59.392 26.5472 59.392 59.392C571.392 447.715328 544.843776 474.263552 512 474.263552z"  horiz-adv-x="1024" />

    
    <glyph glyph-name="star-retreated" unicode="&#59028;" d="M800 320L800 96 224 96 224 320 128 320 128 96 128 0 896 0 896 96 896 320ZM460.8 172.79999999999995L563.2 172.79999999999995 563.2 588.8 691.2 588.8 512 768 332.8 588.8 460.8 588.8Z"  horiz-adv-x="1024" />

    
    <glyph glyph-name="star-archive" unicode="&#59056;" d="M800 320L800 96 224 96 224 320 128 320 128 96 128 0 896 0 896 96 896 320ZM691.2 352L563.2 352 563.2 768 460.8 768 460.8 352 332.8 352 512 172.79999999999995Z"  horiz-adv-x="1024" />

    
    <glyph glyph-name="shenhe" unicode="&#58902;" d="M102.838-121.158c-41.452 11.199-78.152 46.496-93.426 89.862-6.665 18.997-7.744 76.532-7.744 414.797 0 439.083-1.484 420.084 36.162 462.991 11.063 12.603 31.005 28.281 44.283 34.866l24.206 11.928h746.017l30.251-15.49c23.397-12.008 34.92-22.29 50.705-45.281l20.402-29.766 1.646-73.427c1.914-84.735-0.919-94.612-27.066-94.612-28.202 0-33.275 12.548-33.275 82.307 0 65.278-5.424 80.363-37.375 104.11-14.301 10.66-17.136 10.713-375.208 10.713-352.864 0-361.175-0.215-378.662-10.362-10.578-6.126-22.533-19.619-29.359-33.084l-11.469-22.722-0-381.902v-381.902l11.469-22.72c20.211-39.993 30.601-43.043 155.895-46.011 117.657-2.779 118.253-2.94 118.414-31.707 0.162-26.85-12.007-29.767-122.299-29.389-63.039 0.218-108.455 2.698-123.567 6.801v0zM981.787-124.775c-4.238 1.486-41.127 36.002-82.010 76.667l-74.319 73.913-43.985-27.688c-25.556-16.082-62.851-33.894-89-42.5-41.423-13.602-51.057-14.789-119.088-14.681-69.649 0.135-76.639 1.080-118.737 16.057-63.443 22.587-97.093 44.149-146.694 93.991-49.006 49.195-75.667 91.294-95.663 150.985-12.468 37.242-13.736 48.007-13.736 117.792 0 69.811 1.268 80.553 13.736 117.792 19.995 59.665 46.632 101.736 95.663 151.065 48.899 49.221 90.565 75.749 150.58 95.881 37.025 12.414 48.008 13.681 117.417 13.681 69.406 0 80.389-1.268 117.413-13.681 60.151-20.159 101.656-46.63 150.58-95.96 74.562-75.182 107.134-148.287 111.263-249.669 3.671-90.726-14.949-160.189-61.823-230.512l-25.204-37.806 77.205-78.045c50.462-50.974 77.232-81.764 77.232-88.808 0-5.94-6.045-15.572-13.44-21.4-14.168-11.172-15.193-11.442-27.389-7.072v0zM642.306 7.374c107.081 22.48 194.865 99.927 235.073 207.41 12.818 34.3 14.41 45.228 14.708 102.41 0.323 57.32-1.134 68.383-13.978 105.865-25.906 75.722-81.416 141.001-151.041 177.728-48.221 25.42-76.504 33.651-128.152 37.294-62.176 4.425-109.048-4.83-163.75-32.302-54.025-27.147-92.911-61.446-126.185-111.343-37.159-55.726-49.519-99.361-49.519-174.678 0-53.971 1.727-66.547 14.33-103.302 27.012-78.958 84.223-144.263 158.568-181.1 68.734-34.028 137.465-43.203 209.947-27.983v0zM559.218 74.245c-13.17 9.283-15.301 33.409-3.941 44.824 4.075 4.073 20.673 9.093 36.917 11.117 45.551 5.694 80.309 21.158 111.128 49.411 33.92 31.089 52.189 66.789 61.364 119.816 7.395 42.773 12.36 49.357 35.703 47.278 25.070-2.185 31.79-20.671 24.207-66.249-17.272-103.516-94.073-185.472-193.677-206.63-44.365-9.445-57.749-9.364-71.701 0.432v0zM354.855 383.986c-14.328 13.358-14.059 19.996 2.105 52.027 24.828 49.141 96.043 111.424 127.589 111.586 15.354 0.053 28.659-16.866 26.689-33.974-1.269-11.038-8.42-18.918-30.519-33.544-29.766-19.727-58.048-50.705-72.647-79.526-13.98-27.632-34.542-34.029-53.217-16.569v0zM354.855 383.986z"  horiz-adv-x="1024" />

    
    <glyph glyph-name="face" unicode="&#59200;" d="M757.58985635 286.43880908000006c-3.65159883 1.84564512-7.34288906 2.42116875-11.60970205 2.42116875-10.39911769 0-20.2227126-6.13230469-24.529217-15.30099228 0 0-14.05071651-28.75633945-47.07386982-56.30209453-44.11686885-37.94487364-99.82359404-56.93715527-165.33406846-56.93715528-67.33627383 0-123.04299902 18.99228252-165.90959209 56.32194023-31.21719961 27.54575508-44.05733174 55.7265709-44.05733174 55.7265709-4.30650528 9.80374834-14.09040791 16.51157666-25.10474062 16.51157667-3.69129023 0-7.36273388-0.57552363-10.41896338-2.42116875-6.72767403-3.05622949-11.62954775-7.95810323-14.70562296-14.68577726-2.44101445-6.74751972-2.44101445-14.09040791 2e-8-20.83792763 0.63506075-1.84564512 16.53142237-37.94487364 56.93715527-74.08379268 23.27894121-20.79823623 50.20948213-37.30981289 80.21609737-48.95920634 36.73428926-14.68577724 78.35060654-22.0088206 123.04299901-22.00882061 43.4818081 0 83.84785049 7.32304336 120.58213887 22.00882061 30.02646094 11.64939346 56.97684667 28.16097011 80.8313124 48.95920634 40.42557862 34.92833555 57.53252461 69.18191807 59.37816972 72.87320831C776.54244747 263.79492861999995 771.06504922 279.67144453000003 757.58985635 286.43880908000006zM325.3715545 431.51047441l7.36273388 0c17.1267917 0 31.21719961 14.09040791 31.21719961 31.23704531l0 56.93715528c0 17.1466374-14.09040791 31.23704531-31.21719961 31.23704531l-7.36273389 0c-17.1267917 0-31.21719961-14.09040791-31.21719961-31.23704531l0-56.93715528C294.76956992 445.60088231 308.24476279 431.51047441 325.3715545 431.51047441zM684.71664805 431.51047441l7.38257958 0c17.10694599 0 31.21719961 14.09040791 31.21719961 31.23704531l0 56.93715528c0 17.1466374-14.11025362 31.23704531-31.21719961 31.23704531l-7.38257958 0c-17.10694599 0-31.19735391-14.09040791-31.19735391-31.23704531l0-56.93715528C653.51929414 445.60088231 667.60970205 431.51047441 684.71664805 431.51047441zM508.5270125 799.46857763C275.43991221 799.46857763 86.60859981 610.63726612 86.60859981 377.55016493999995s188.83131239-421.9184127 421.91841269-421.91841269S930.44542432 144.46306464999998 930.44542432 377.55016493999995 741.61411279 799.46857763 508.5270125 799.46857763zM511.42447637 9.67144453000003c-201.57221602 0-364.96141084 163.30981289-364.96141084 365.08048506 0 201.75082646 163.27012148 364.90187461 364.96141083 364.90187461 201.71113594 0 364.96141084-163.42888623 364.96141085-365.06063936C876.36604151 172.98125654 712.97684668 9.67144453000003 511.42447637 9.67144453000003z"  horiz-adv-x="1024" />

    
    <glyph glyph-name="star-end-time" unicode="&#58923;" d="M815.576 187.25300000000004c-6.236 0-11.299-5.062-11.299-11.321l0-22.619c0-6.236 5.063-11.299 11.299-11.299 6.247 0 11.31 5.062 11.31 11.299l0 22.619C826.886 182.19000000000005 821.823 187.25300000000004 815.576 187.25300000000004zM816.684 119.24199999999996c-6.171 1.13-12.016-2.998-13.124-9.126-3.857-21.555-22.576-37.199-44.511-37.199l-89.903 0c-6.236 0-11.299-5.041-11.299-11.299s5.062-11.299 11.299-11.299l89.903 0c32.897 0 60.982 23.466 66.772 55.799C826.918 112.26700000000005 822.833 118.13400000000001 816.684 119.24199999999996zM779.137 792.853l-67.815 0L711.322 838.614c0 12.472-10.126 22.598-22.619 22.598-12.483 0-22.609-10.126-22.609-22.598l0-45.76L326.898 792.854l0 45.76c0 12.472-10.126 22.598-22.619 22.598-12.483 0-22.609-10.126-22.609-22.598l0-45.76-67.848 0c-74.812 0-135.674-60.862-135.674-135.674l0-565.315c0-74.833 60.862-135.674 135.674-135.674l565.315 0c74.812 0 135.674 60.841 135.674 135.674L914.811 657.1800000000001C914.811 731.991 853.949 792.853 779.137 792.853zM213.822 747.613l67.847 0 0-22.077c0-12.494 10.126-22.619 22.609-22.619 12.494 0 22.619 10.126 22.619 22.619l0 22.077 339.195 0 0-22.077c0-12.494 10.126-22.619 22.609-22.619 12.494 0 22.619 10.126 22.619 22.619l0 22.077 67.815 0c49.868 0 90.446-40.568 90.446-90.435l0-88.414-746.217 0 0 88.414C123.365 707.047 163.944 747.613 213.822 747.613zM779.137 1.407000000000039L213.822 1.407000000000039c-49.878 0-90.456 40.567-90.456 90.456l0 454.281 746.217 0 0-454.281C869.583 41.974000000000046 829.004 1.407000000000039 779.137 1.407000000000039zM473.581 170.40700000000004l0 274.61c0.237 6.496 2.645 11.187 7.217 14.073 5.052 3.124 10.944 4.691 17.682 4.691 6.496 0 11.908-1.443 16.238-4.33 5.052-3.129 7.578-7.939 7.578-14.435l0-89.853 103.926 0c6.253-0.242 10.826-2.65 13.713-7.217 3.123-5.053 4.691-10.95 4.691-17.683 0-6.495-1.444-11.908-4.331-16.238-3.371-5.052-8.063-7.578-14.073-7.578L522.296 306.447l0-136.042 122.69 0c6.253-0.236 10.826-2.644 13.713-7.217 3.123-5.052 4.69-10.944 4.69-17.682 0-6.495-1.443-11.908-4.33-16.238-3.372-5.053-8.063-7.578-14.073-7.578L331.765 121.69000000000005c-6.495 0-11.187 2.525-14.073 7.578-3.129 5.052-4.691 10.949-4.691 17.682 0 6.495 1.443 11.908 4.33 16.238 3.124 4.815 7.939 7.217 14.434 7.217l40.777 0L372.542 365.63c0.237 6.495 2.644 11.187 7.217 14.073 5.052 3.124 10.944 4.691 17.682 4.691 6.495 0 11.908-1.443 16.238-4.331 5.052-3.129 7.578-7.938 7.578-14.434l0-195.223L473.581 170.40599999999995z"  horiz-adv-x="1024" />

    
    <glyph glyph-name="star-start-time" unicode="&#58926;" d="M815.576 187.25300000000004c-6.236 0-11.299-5.062-11.299-11.321l0-22.619c0-6.236 5.063-11.299 11.299-11.299 6.247 0 11.31 5.062 11.31 11.299l0 22.619C826.886 182.19000000000005 821.823 187.25300000000004 815.576 187.25300000000004zM816.684 119.24199999999996c-6.171 1.13-12.016-2.998-13.124-9.126-3.857-21.555-22.576-37.199-44.511-37.199l-89.903 0c-6.236 0-11.299-5.041-11.299-11.299s5.062-11.299 11.299-11.299l89.903 0c32.897 0 60.982 23.466 66.772 55.799C826.918 112.26700000000005 822.833 118.13400000000001 816.684 119.24199999999996zM779.137 792.853l-67.815 0L711.322 838.614c0 12.472-10.126 22.598-22.619 22.598-12.483 0-22.609-10.126-22.609-22.598l0-45.76L326.898 792.854l0 45.76c0 12.472-10.126 22.598-22.619 22.598-12.483 0-22.609-10.126-22.609-22.598l0-45.76-67.848 0c-74.812 0-135.674-60.862-135.674-135.674l0-565.315c0-74.833 60.862-135.674 135.674-135.674l565.315 0c74.812 0 135.674 60.841 135.674 135.674L914.811 657.1800000000001C914.811 731.991 853.949 792.853 779.137 792.853zM213.822 747.613l67.847 0 0-22.077c0-12.494 10.126-22.619 22.609-22.619 12.494 0 22.619 10.126 22.619 22.619l0 22.077 339.195 0 0-22.077c0-12.494 10.126-22.619 22.609-22.619 12.494 0 22.619 10.126 22.619 22.619l0 22.077 67.815 0c49.868 0 90.446-40.568 90.446-90.435l0-88.414-746.217 0 0 88.414C123.365 707.047 163.944 747.613 213.822 747.613zM779.137 1.407000000000039L213.822 1.407000000000039c-49.878 0-90.456 40.567-90.456 90.456l0 454.281 746.217 0 0-454.281C869.583 41.974000000000046 829.004 1.407000000000039 779.137 1.407000000000039zM527.348 460.896c3.846 2.402 10.104 2.763 18.765 1.083 9.14-2.408 14.795-5.898 16.96-10.465 2.402-5.537 2.402-12.032 0-19.486-8.66-25.023-22.136-53.169-40.415-84.44l74.336 9.021c-5.774 13.47-9.743 22.131-11.908 25.981-2.888 5.773-2.888 10.944 0 15.517 2.887 5.052 7.217 9.14 12.99 12.269 5.531 2.887 10.944 4.207 16.238 3.97 5.774-0.722 10.104-3.733 12.991-9.021 7.217-13.476 13.109-25.745 17.682-36.807 5.052-12.27 11.305-29.59 18.765-51.963 1.923-6.259 0.958-11.311-2.887-15.156-4.094-4.814-9.146-8.063-15.156-9.743-6.259-1.686-11.908-1.804-16.96-0.36-5.537 1.443-9.146 5.17-10.826 11.187-1.206 3.608-2.289 6.975-3.247 10.104l-125.578-17.321c-6.016-1.443-11.671-1.686-16.96-0.722-6.738 1.681-11.671 5.413-14.795 11.187-0.964 1.201-1.567 2.166-1.804 2.888-1.207-5.774-2.29-11.548-3.248-17.321-5.294-24.059-13.712-48.479-25.26-73.254-1.443-2.887-2.887-5.536-4.33-7.938l25.981-15.878c5.289-3.608 7.815-8.063 7.578-13.352 0-6.495-1.805-12.387-5.413-17.682-3.851-5.289-8.063-9.021-12.63-11.187-5.294-2.645-10.589-2.165-15.877 1.443l-24.177 15.156c-3.372-4.33-6.62-8.661-9.743-12.991-13.712-16.356-27.549-30.312-41.498-41.858-5.052-3.846-10.465-4.929-16.239-3.248-5.294 1.929-9.867 5.413-13.712 10.465-4.33 5.537-6.856 11.311-7.578 17.321-0.722 6.016 1.562 10.949 6.856 14.795 16.357 13.712 30.43 27.063 42.22 40.055l-24.538 15.517c-10.347 8.66-16.96 16.718-19.847 24.177-2.65 7.696-2.047 16.357 1.804 25.982 6.732 14.191 14.914 41.137 24.538 80.831 1.443 7.696 2.887 14.913 4.33 21.651l-15.877 0c-6.495 0-11.311 2.525-14.434 7.578-2.887 4.33-4.33 9.742-4.33 16.238 0 6.732 1.562 12.629 4.691 17.682 2.887 4.81 7.578 7.217 14.073 7.217l23.456 0c1.923 14.671 3.005 28.147 3.248 40.416 1.201 6.253 4.449 10.222 9.743 11.908 5.774 1.68 11.908 2.041 18.404 1.083 6.253-1.443 11.305-4.094 15.156-7.939 4.088-4.33 5.413-9.506 3.969-15.517-0.722-8.181-1.928-18.167-3.608-29.951l35.364 0c11.784-0.722 19.604-4.093 23.456-10.104 4.33-6.98 5.773-16.724 4.33-29.229-0.722-10.825-1.567-21.054-2.526-30.673 28.146 39.452 47.633 75.537 58.458 108.257C520.007 454.276 523.018 458.488 527.348 460.896zM387.336 343.97900000000004c-9.867-39.215-17.445-66.036-22.734-80.471-0.964-5.052-1.325-9.021-1.083-11.908 0.722-2.887 3.727-6.259 9.021-10.104l13.712-8.661c0.958 2.166 1.923 4.088 2.887 5.774 7.939 16.356 14.192 34.399 18.765 54.128 4.81 20.444 7.938 41.256 9.382 62.428-0.242 2.165-0.846 3.727-1.804 4.691-1.443 0.958-3.969 1.443-7.578 1.443l-17.321 0C389.377 355.76300000000003 388.295 349.98900000000003 387.336 343.97900000000004zM652.203 260.98199999999997l0-125.938c0-11.784-5.897-17.682-17.682-17.682L484.045 117.36199999999997c-11.79 0-17.682 5.897-17.682 17.682L466.363 260.98199999999997c0 11.784 5.892 17.682 17.682 17.682l150.476 0C646.306 278.664 652.203 272.76700000000005 652.203 260.98199999999997zM519.048 229.94799999999998c-2.649-0.242-3.969-1.567-3.969-3.969l0-55.933c0.236-2.645 1.562-3.97 3.969-3.97l80.471 0c2.645 0.242 3.97 1.567 3.97 3.97l0 55.933c-0.242 2.645-1.567 3.969-3.97 3.969L519.048 229.94799999999998z"  horiz-adv-x="1024" />

    
    <glyph glyph-name="hetongpingshen" unicode="&#58968;" d="M201.109856 492.567671 818.699706 492.567671c14.984273 0 27.173896 12.190647 27.173896 27.175943 0 14.983249-12.189623 27.173896-27.172873 27.173896L201.109856 546.91751c-14.984273 0-27.173896-12.190647-27.173896-27.173896C173.936983 504.757295 186.126606 492.567671 201.109856 492.567671zM201.109856 629.072625 818.699706 629.072625c14.984273 0 27.173896 12.189623 27.173896 27.173896s-12.189623 27.174919-27.172873 27.174919L201.109856 683.42144c-14.984273 0-27.173896-12.190647-27.173896-27.174919S186.126606 629.072625 201.109856 629.072625zM928.819732 804.60136c-17.630542 17.630542-41.073464 27.339672-66.007343 27.339672L156.999219 831.941032c-51.470255 0-93.343945-41.87369-93.343945-93.344968l0-799.164279 5.119601 0.00307c0.165776 0 16.881482 0.021489 44.300972 1.040702l4.926196 0.184195L118.002043 738.596064c0 21.502733 17.494443 38.995129 38.997176 38.995129l705.813171 0c21.50478 0 38.997176-17.493419 38.997176-38.995129l0-352.314091c-6.081509 7.67582-12.632715 15.030321-19.576871 21.975501-47.622624 47.62467-110.942765 73.852008-178.294732 73.852008-66.287729 0-128.746246-25.445532-176.11509-71.692832L201.109856 410.41665c-14.984273 0-27.173896-12.189623-27.173896-27.171849 0.001023-14.984273 12.19167-27.172873 27.173896-27.172873l284.403398 0c-14.732539-25.452695-24.771173-53.032844-29.891797-82.165348L201.109856 273.906579c-14.984273 0-27.173896-12.189623-27.173896-27.173896 0-14.986319 12.189623-27.175943 27.173896-27.175943l250.886027 0c2.439562-59.758012 25.759687-116.131951 66.165955-160.102395-5.736655-1.811252-11.420097-3.694135-16.97051-5.629207-56.428174-19.663852-120.290667-30.905894-169.622212-38.504966l-4.337795-0.667196 0-55.011918 5.875824 0.881067c58.184167 8.730848 125.276215 19.8767 185.170327 41.714054 15.807011 5.76633 32.608675 10.851139 49.972135 15.125489 40.469714-25.88453 87.336114-39.552831 135.687332-39.552831 67.356061 0 130.676202 26.227338 178.295755 73.849962 45.016263 45.01831 71.050196 104.470353 73.635067 167.898965l0.289596 0L956.157357 738.596064C956.158381 763.529943 946.450275 786.970818 928.819732 804.60136zM506.498194 219.560834l0.109494 0-0.135076 5.247514c-0.344854 13.44522 0.534166 26.501584 2.612501 38.809911 5.827729 34.041304 20.488637 65.956178 42.448788 92.457762l0.195451 0 1.531889 1.807159c3.0208 3.558036 6.299473 7.347339 9.809413 10.949376 0.330528 0.335644 0.661056 0.667196 0.9967 1.001817 1.261737 1.26276 2.561335 2.526543 3.858888 3.756557 0.002047 0.002047 0.00307 0.00307 0.005117 0.005117 10.793834 10.17985 23.191188 19.358907 36.853349 27.281343l8.296967 4.813632c27.930119 14.411221 59.133795 21.986757 90.858334 21.986757 52.896744 0 102.568027-20.542872 139.865491-57.843406 37.296441-37.301558 57.83829-86.97591 57.839313-139.872654 0.002047-52.898791-20.538779-102.571097-57.83829-139.866515-37.301558-37.297464-86.97591-57.83829-139.874701-57.83829-17.903765 0-35.649941 2.396583-52.830229 7.128351l-4.832052 1.464351c-23.216771 7.03523-44.789089 18.280342-64.11218 33.423227l-1.895163 1.484817-0.180102-0.038886c-5.564739 4.477988-10.94426 9.30697-16.013719 14.376429C529.366018 124.79654 509.040087 170.595632 506.498194 219.560834zM839.77879 335.563848 655.272589 151.056624 561.482483 244.579647 521.751596 204.74029 655.272589 71.594851 879.509676 295.832961Z"  horiz-adv-x="1024" />

    
    <glyph glyph-name="loading" unicode="&#59033;" d="M546.462897 629.707034c-73.410207 0-133.15531 59.727448-133.155311 133.137656C413.307586 836.237241 473.05269 896 546.462897 896c73.410207 0 133.12-59.727448 133.12-133.15531 0-73.410207-59.709793-133.137655-133.12-133.137656z m-283.453794-105.736827c-67.054345 0-121.626483 54.554483-121.626482 121.644138s54.572138 121.644138 121.626482 121.644138a121.767724 121.767724 0 0 0 121.608828-121.644138c0-67.054345-54.554483-121.644138-121.608828-121.644138zM142.547862 248.814345A107.343448 107.343448 0 0 0 35.310345 356.104828a107.343448 107.343448 0 0 0 107.237517 107.237517 107.343448 107.343448 0 0 0 107.219862-107.237517 107.343448 107.343448 0 0 0-107.219862-107.272828z m120.461241-272.595862a91.047724 91.047724 0 0 0-90.941793 90.959448 91.065379 91.065379 0 0 0 90.924138 90.941793 91.065379 91.065379 0 0 0 90.941793-90.941793c0-50.14069-40.783448-90.959448-90.924138-90.959448zM546.462897-128a79.518897 79.518897 0 0 0-79.448276 79.448276c0 43.820138 35.645793 79.448276 79.448276 79.448276a79.518897 79.518897 0 0 0 79.43062-79.448276c0-43.820138-35.628138-79.448276-79.448276-79.448276z m287.744 134.285241a64.194207 64.194207 0 0 0-64.123587 64.123587 64.194207 64.194207 0 0 0 64.123587 64.123586 64.194207 64.194207 0 0 0 64.123586-64.123586 64.194207 64.194207 0 0 0-64.123586-64.123587z m117.848275 296.695173a52.683034 52.683034 0 0 0-52.612413 52.612414 52.683034 52.683034 0 0 0 52.612413 52.630069 52.70069 52.70069 0 0 0 52.630069-52.612414 52.718345 52.718345 0 0 0-52.630069-52.630069z m-158.667034 338.696827a40.818759 40.818759 0 1 1 81.655172-0.017655 40.818759 40.818759 0 0 1-81.655172 0z"  horiz-adv-x="1024" />

    
    <glyph glyph-name="could-storage" unicode="&#58909;" d="M822.272 421.376c3.072 15.36 5.12 31.744 5.12 48.128 0 128-103.936 231.936-231.936 231.936C488.96 701.44 399.36 629.76 371.712 531.9680000000001c-13.824 2.048-27.648 3.584-41.984 3.584-146.432 0-265.216-118.784-265.216-265.216S183.296 5.1200000000000045 329.728 5.1200000000000045h431.104v1.536c111.104 8.704 199.168 100.352 199.168 214.016 0 91.648-57.344 169.472-137.728 200.704z m-79.36-358.4v-1.536h-399.36c-118.784 0-215.04 96.256-215.04 215.04s96.256 215.04 215.04 215.04c22.016 0 43.52-3.584 63.488-9.728 10.24 92.16 87.552 163.328 182.272 163.328 101.888 0 184.32-82.432 184.32-184.32 0-23.04-4.608-44.544-12.288-65.024 77.312-15.872 135.168-83.968 135.168-165.376 0-88.064-67.584-159.744-153.6-167.424z m-363.008 141.312c-9.216 0-16.384-7.68-16.384-16.384l0.512-148.992h33.28l-0.512 148.992c-0.512 8.704-8.192 16.384-16.896 16.384z m132.608 0c-9.216 0-16.384-6.656-16.384-14.848v-150.528h33.28V189.44000000000005c-0.512 7.68-7.68 14.848-16.896 14.848z m132.608 0c-9.216 0-16.384-6.656-16.384-14.848v-150.528h33.28V189.44000000000005c-0.512 7.68-7.68 14.848-16.896 14.848z"  horiz-adv-x="1024" />

    
    <glyph glyph-name="accessory" unicode="&#58935;" d="M922.61785888 560.8356628399999c0 51.3748169-20.00610352 99.67456055-56.33432006 136.0027771-36.32739258 36.32739258-84.62713623 56.33349609-136.00195312 56.3334961s-99.67538452-20.00610352-136.00277711-56.3334961l-39.9092102-39.9092102-0.01647949-0.01565552L344.18685913 446.74566651c-24.04605102-24.04522705-37.28814698-56.0154419-37.28814697-90.021698s13.24291992-65.97647094 37.28814697-90.02169801c24.04605102-24.046875 56.01626587-37.28897094 90.021698-37.28897094s65.97647094 13.24209594 90.021698 37.28897094L698.01968383 440.49169922c10.2972107 10.2972107 10.2972107 26.99176026 0 37.28897094-10.29638672 10.2972107-26.99093628 10.2972107-37.28897094 0L486.94210815 303.99041748c-14.08584594-14.08584594-32.81314087-21.84274292-52.73355102-21.84274292s-38.64770508 7.75689698-52.73355103 21.8435669c-14.08584594 14.08502198-21.84274292 32.8123169-21.84274292 52.73272705 0 19.91958618 7.75772094 38.6468811 21.84274292 52.73272704l15.37619019 15.3761902 146.88088989 146.88088988 87.83486939 87.83569336c54.4317627 54.43093872 142.99667359 54.4317627 197.4276123 0 26.3671875-26.3671875 40.88809204-61.42483521 40.88809205-98.71380615s-14.52090454-72.34579468-40.88891602-98.71380615L594.27880859 227.40692137999997 492.49075318 125.61804199000005c-37.43811035-37.43811035-87.21441651-58.05560303-140.15972901-58.05560303s-102.72161865 20.61749268-140.15972901 58.05477906c-37.43811035 37.43893433-58.05560303 87.21441651-58.05560302 140.15972901 0 52.94613648 20.61749268 102.72161865 58.05560302 140.15972899l259.54293823 259.54293824c10.2972107 10.2972107 10.2972107 26.99176026 0 37.28897095s-26.99176026 10.2972107-37.28897094 0l-259.54211425-259.54376221C127.48565674 395.82650757 101.38214112 332.80810547 101.38214112 265.77612305c0-67.03115844 26.10351563-130.04956055 73.50100708-177.44705201 47.39831542-47.39831542 110.41754151-73.50100708 177.44787597-73.50100708s130.05038452 26.10269165 177.44787598 73.50100708L757.14068604 315.69168090999995l0.00741576 0.00741577 109.13461304 109.13461304c36.32904052 36.32739258 56.33514404 84.62713623 56.33514404 136.00195312z"  horiz-adv-x="1024" />

    
    <glyph glyph-name="admin-search" unicode="&#58930;" d="M739.64600615 468.48331992c0 170.70875947-138.37927852 309.1321081-309.17348086 309.13210899-170.70875947 0-309.08983711-138.42334864-309.08983711-309.13210899 0-170.71055859 138.38017852-309.1330081 309.08983711-309.13300723 170.79420146 0.00089912 309.17347998 138.42334864 309.17348086 309.13300723zM430.47252529 236.62412109000002c-128.03179482 0-231.77555596 103.786033-231.77555595 231.86009883 0 128.03179482 103.74376201 231.85919971 231.77555595 231.85919883 128.11813594 0 231.85919971-103.82740489 231.85919971-231.85919883 0-128.07586494-103.74106377-231.86009883-231.85919971-231.86009883zM882.21734229 109.10497910000004L713.99000059 277.33321992000003c-24.20259082-40.28188887-58.07092763-74.06658281-98.44095674-98.26917363L783.86272666 10.749463470000023c27.19935879-27.15348955 71.24429619-27.15348955 98.35371651 1e-8 27.19935879 27.11301768 27.19935879 71.24429619 0.00089912 98.35551563z"  horiz-adv-x="1024" />

    
    <glyph glyph-name="more" unicode="&#59230;" d="M143.24911279 393.97333769m-78.29551493 0a78.29551582 78.29551582 0 1 1 156.59103076 0 78.29551582 78.29551582 0 1 1-156.59103076 0ZM511.72028983 393.97333769m-78.2955158 0a78.29551582 78.29551582 0 1 1 156.59103163 0 78.29551582 78.29551582 0 1 1-156.59103164 0ZM880.19146602 393.97333769m-78.29551582 0a78.29551582 78.29551582 0 1 1 156.59103163 0 78.29551582 78.29551582 0 1 1-156.59103164 0Z"  horiz-adv-x="1024" />

    
    <glyph glyph-name="contacts" unicode="&#58900;" d="M778.4 620.4h161.5c10.8 0 19.4 8.6 19.4 19.4 0 10.8-8.6 19.4-19.4 19.4H778.4c-10.8 0-19.4-8.6-19.4-19.4-2.1-10.7 6.5-19.4 19.4-19.4zM939.9 512.7H804.2c-10.8 0-19.4-8.6-19.4-19.4s8.6-19.4 19.4-19.4h135.7c10.8 0 19.4 8.6 19.4 19.4 0 8.7-8.6 19.4-19.4 19.4zM939.9 362h-94.8c-10.8 0-19.4-8.6-19.4-19.4 0-10.8 8.6-19.4 19.4-19.4h94.8c10.8 0 19.4 8.6 19.4 19.4 0 10.8-8.6 19.4-19.4 19.4zM774.1 181C700.9 219.79999999999995 619 247.79999999999995 619 293c0 62.5 96.9 120.6 96.9 273.6 0 53.8-25.8 243.4-230.5 243.4C283 810 255 618.3 255 566.6c0-150.8 96.9-211.1 96.9-273.6 0-45.2-81.8-73.2-155.1-112-64.6-36.6-133.5-62.5-133.5-135.7 0-51.7 49.5-90.5 96.9-90.5h646.2c47.4 0 96.9 38.8 96.9 90.5 2.2 73.3-64.6 101.3-129.2 135.7z m21.5-170.1H175.3c-17.2 0-56 2.2-56 40.9 0 40.9 58.2 64.6 148.6 107.7 86.2 40.9 135.7 77.5 135.7 135.7 0 84-94.8 122.8-94.8 271.4 0 90.5 75.4 189.5 176.6 189.5C586.6 756.1 662 657 662 566.6c0-148.6-94.8-187.4-94.8-271.4 0-58.2 49.5-94.8 135.7-135.7 90.5-43.1 148.6-66.8 148.6-107.7 0.1-40.9-38.6-40.9-55.9-40.9z"  horiz-adv-x="1024" />

    
    <glyph glyph-name="meeting" unicode="&#58883;" d="M820.60368013 687.59228962a77.75116782 77.75116782 0 0 1-27.99357495-7.88551364 115.68049063 115.68049063 0 0 1-52.51752301-42.02978962 53.46378533 53.46378533 0 0 1-10.48773423-15.21904257 13.87850427 13.87850427 0 0 1-3.46962606-7.88551364A126.16822403 126.16822403 0 0 0 764.53767503 577.19509369c7.01810733-11.43399573 10.4877334-19.08294378 17.50584156-30.51693952l3.54848125-3.86390204a234.75175214 234.75175214 0 0 0 6.93925214-87.76577087 270.63084072 270.63084072 0 0 0-20.97546762-76.33177596 12.30140204 12.30140204 0 0 0-3.54848125-7.88551365l7.01810815-11.43399573c0-30.51693952-13.95735947-53.46378533-41.95093525-72.5467283 3.46962607-30.51693952 24.4450937-53.38493015 66.4748833-72.46787393a162.04731345 162.04731345 0 0 0 70.02336457-49.59988331l7.01810732-7.88551446h167.96144889a77.12032708 77.12032708 0 0 1-7.01810733 30.51693951 58.1950937 58.1950937 0 0 1-6.93925296 22.86799064 182.31308432 182.31308432 0 0 1-80.51109796 64.89778023 54.72546762 54.72546762 0 0 1-17.50584073 7.88551448C897.48744164 302.46378532999995 880.06045528 325.33177596999997 880.06045528 359.7126167l35.01168228 64.89778024a20.42348126 20.42348126 0 0 0 7.01810815 15.21904258c10.40887821 19.08294378 13.87850427 42.02978961 21.05432199 68.68282709v7.88551364a193.66822403 193.66822403 0 0 1-10.56658859 91.62967291v3.78504684a12.45911242 12.45911242 0 0 0-3.46962607 7.88551364 66.39602811 66.39602811 0 0 0-14.03621548 19.08294461 125.14310733 125.14310733 0 0 1-38.48130836 38.16588758 10.40887821 10.40887821 0 0 1-7.01810732 3.86390204 115.28621466 115.28621466 0 0 1-35.01168229 7.88551363 6.22955622 6.22955622 0 0 1-10.4877334 0c0 3.78504684 0 3.78504684-3.39077087 0zM635.05753532 611.5759344200001c-3.46962607 3.86390203-6.93925214 3.86390203-6.93925296 0-3.54848126 3.86390203-3.54848126 3.86390203-3.54848125 0-3.46962607 3.86390203-3.46962607 3.86390203-3.46962608 0h-7.01810733a99.98831772 99.98831772 0 0 1-35.01168228-15.21904175A111.89544378 111.89544378 0 0 1 540.98335304 561.97605112a97.30724277 97.30724277 0 0 1-14.03621548-26.73189184 120.41179897 120.41179897 0 0 1-14.03621467-38.1658884 157.71028025 157.71028025 0 0 1 0-57.24883137c3.54848126-15.21904175 3.54848126-30.51693952 10.5665886-41.95093524v-3.78504602a269.29030408 269.29030408 0 0 1 10.48773422-30.5957947 13.56308432 13.56308432 0 0 1 3.46962607-7.88551365c3.54848126-3.86390203 3.54848126-3.86390203 3.54848126-7.88551447l35.01168228-61.1127334v-18.53095825c-7.01810733-30.51693952-27.99357495-53.38493015-70.02336456-68.68282708-3.54848126-3.78504684-7.01810733-3.78504684-10.56658859-7.88551364a131.37266355 131.37266355 0 0 1-63.08411244-53.38493015A62.61098126 62.61098126 0 0 1 418.20589988 111.94976660999998a43.76460306 43.76460306 0 0 1-3.39077169-30.91121549v-3.86390122h426.76401874v7.88551365a70.41764053 70.41764053 0 0 1-3.46962607 26.73189267 176.47780408 176.47780408 0 0 1-14.03621467 26.73189266c-14.03621467 26.73189267-42.02978961 45.81483645-73.49299063 61.03387821A224.50058432 224.50058432 0 0 0 708.55052596 222.34696252000003a81.77278025 81.77278025 0 0 0-27.99357495 45.73598127v15.21904257L715.56863329 348.51518654999995a13.7207947 13.7207947 0 0 0 3.46962606 7.88551447c0 3.78504684 0 3.78504684 3.46962607 7.88551365a141.93925214 141.93925214 0 0 0 14.03621466 34.38084155V409.2336448a77.12032708 77.12032708 0 0 1 7.01810816 30.51693952 221.34637821 221.34637821 0 0 1-7.01810816 83.98072403 12.45911242 12.45911242 0 0 0-3.46962607 7.88551446 139.17932281 139.17932281 0 0 1-17.50584072 30.51693869 7.88551364 7.88551364 0 0 1-7.01810733 7.88551447c-10.4877334 11.43399573-21.05432282 22.86799063-31.54205622 26.73189185v3.3119165a86.74065417 86.74065417 0 0 1-42.02978961 11.5128501zM491.62003532 577.19509369a126.16822403 126.16822403 0 0 0 38.48130835 38.16588757 81.14193952 81.14193952 0 0 1-13.95736028 22.86799063v3.86390204C491.62003532 668.82476661 467.17494164 687.59228962 435.63288542 687.59228962a6.22955622 6.22955622 0 0 1-10.56658859-1e-8c0 3.86390203-3.46962607 3.86390203-3.46962607 0-3.46962607 3.86390203-3.46962607 3.86390203-3.46962607 0-35.01168228 0-59.45677597-19.08294378-83.98072486-49.59988331 0-3.78504684-3.46962607-3.78504684-3.46962606-7.88551363a78.85514053 78.85514053 0 0 1-14.03621466-22.86799064 177.73948636 177.73948636 0 0 1-10.4877334-64.89778024v-26.73189267a80.66880835 80.66880835 0 0 0 3.46962607-26.65303747 205.02336456 205.02336456 0 0 1 17.50584073-49.67873849 51.49240631 51.49240631 0 0 0 10.4877334-15.21904175l35.01168228-64.89778025a121.2003501 121.2003501 0 0 0-6.93925213-34.38084155 139.73130835 139.73130835 0 0 0-31.54205623-34.30198553 338.05198636 338.05198636 0 0 0-35.01168227-15.29789778c-38.48130835-14.66705622-66.4748833-37.61390203-80.43224278-64.34579387a34.06542078 34.06542078 0 0 1-10.48773339-22.86799064c-3.54848126 0-3.54848126-3.78504684-3.54848126-7.88551446 0-7.88551364-3.46962607-15.21904175 0-22.86799063h171.43107412c13.95735947 22.86799063 35.01168228 38.16588757 66.47488331 53.38493014 3.54848126 0 7.01810733 3.86390203 14.03621548 3.86390204 38.48130835 19.08294378 63.08411242 41.95093442 70.02336456 72.46787393-31.54205621 19.08294378-45.49941568 42.02978961-48.96904257 72.54672831l10.56658859 11.43399572c-3.54848126 3.86390203-3.54848126 7.88551364-7.01810733 7.88551364a271.81366782 271.81366782 0 0 0-21.05432198 76.33177597v53.38493016a200.68633218 200.68633218 0 0 0 14.03621466 41.95093442A118.28271038 118.28271038 0 0 0 491.62003532 577.19509369z"  horiz-adv-x="1456" />

    
    <glyph glyph-name="admin-add" unicode="&#58894;" d="M512 580.875a28.125 28.125 0 0 1 28.125 28.125V665.25a28.125 28.125 0 0 1-56.25 0v-56.25a28.125 28.125 0 0 1 28.125-28.125zM496.25 754.40625a21.375 21.375 0 0 1 5.0625-2.53125l5.0625-2.25h10.96875a17.4375 17.4375 0 0 1 5.34375 1.6875 15.75 15.75 0 0 1 4.78125 2.53125l4.21875 3.375A28.125 28.125 0 0 1 540.125 777.75a28.125 28.125 0 0 1-2.25 10.6875 25.59375 25.59375 0 0 1-6.1875 9.28125l-4.21875 3.375a15.75 15.75 0 0 1-4.78125 2.53125 17.15625 17.15625 0 0 1-5.34375 2.25 23.90625 23.90625 0 0 1-10.96875 0 17.71875 17.71875 0 0 1-5.0625-1.6875 21.375 21.375 0 0 1-5.0625-2.53125l-4.21875-3.375a32.34375 32.34375 0 0 1-5.90625-9.28125 23.34375 23.34375 0 0 1-2.25-11.25 28.125 28.125 0 0 1 8.15625-19.96875zM905.75 412.125H540.125v84.375a28.125 28.125 0 0 1-56.25 0v-84.375H118.25a28.125 28.125 0 0 1 0-56.25h365.625v-365.625a28.125 28.125 0 0 1 56.25 0V355.875h365.625a28.125 28.125 0 0 1 0 56.25z"  horiz-adv-x="1024" />

    
    <glyph glyph-name="order-add" unicode="&#59207;" d="M692 759.9v68.2h-360v-68.2h-215v-820h378.9v50h-328.9v720h165v-61.8h360v61.8h165v-361.9h50v411.9h-215zM642 698.1h-260v80h260v-80zM287 370.2h280v-50h-280v50zM737 470.9h-450v50h450v-50zM742 154.9h165v-50h-165v-165h-50v165h-165v50h165v165h50v-165z"  horiz-adv-x="1024" />

    
    <glyph glyph-name="wenjianguanli1" unicode="&#58905;" d="M725.4 588h-440c-11 0-20 9-20 20v11.6c0 44.8 36.6 81.4 81.4 81.4h69.6V753.6c0 49.2 40 89 89 89 49.2 0 89-40 89-89v-52.8H664c44.8 0 81.4-36.6 81.4-81.4v-11.6c0-10.8-8.8-19.8-20-19.8z m-419 40h398.2c-4 18.8-20.6 33-40.4 33h-89.6c-11 0-20 9-20 20V753.6c0 27-22 49-49 49s-49-22-49-49v-72.8c0-11-9-20-20-20h-89.6c-20 0.2-36.6-14-40.6-32.8zM762.8-52.6H248.2c-61 0-110.8 49.6-110.8 110.8V654.8c0 61 49.6 110.8 110.8 110.8h105.2c11 0 20-9 20-20s-9-20-20-20h-105.2c-39 0-70.8-31.8-70.8-70.8V58c0-39 31.8-70.8 70.8-70.8h514.6c39 0 70.8 31.8 70.8 70.8V654.8c0 39-31.8 70.8-70.8 70.8h-105.2c-11 0-20 9-20 20s9 20 20 20h105.2c61 0 110.8-49.6 110.8-110.8V58c0-61-49.8-110.6-110.8-110.6zM505.6 735.8m-24 0a24 24 0 1 1 48 0 24 24 0 1 1-48 0ZM719.4 437.6H285.6c-11 0-20 9-20 20s9 20 20 20h433.8c11 0 20-9 20-20s-9-20-20-20zM719.4 268.4H285.6c-11 0-20 9-20 20s9 20 20 20h433.8c11 0 20-9 20-20s-9-20-20-20zM719.4 99.2H285.6c-11 0-20 9-20 20s9 20 20 20h433.8c11 0 20-9 20-20s-9-20-20-20z"  horiz-adv-x="1024" />

    
    <glyph glyph-name="email" unicode="&#59004;" d="M895.36 724.76H128.648c-46.856 0-85.192-38.336-85.192-85.192v-511.136c0-46.848 38.336-85.184 85.192-85.184h766.712c46.848 0 85.176 38.336 85.176 85.184V639.568c0 46.856-38.328 85.192-85.176 85.192m-766.712-42.592h766.712c4.248 0 10.648 0 14.896-2.128L541.816 311.592C533.304 303.072 522.648 298.79999999999995 512 298.79999999999995s-21.296 4.264-29.816 12.792L113.744 680.04c4.256 2.128 10.648 2.128 14.904 2.128m-42.592-553.736V645.96L350.144 384 86.056 122.03999999999996v6.392z m809.304-42.6H128.648c-4.256 0-10.648 0-14.904 2.136l266.216 266.208 72.408-72.408c17.04-17.04 38.336-25.56 59.632-25.56 21.304 0 42.6 8.52 59.648 23.432l72.408 72.416 266.208-266.216h-14.904z m42.584 42.6v-6.392L673.856 384l264.088 261.96v-517.528z"  horiz-adv-x="1024" />

    
    <glyph glyph-name="star-press" unicode="&#58950;" d="M904.072072 559.279279c-9.225225 0-18.45045 6.918919-20.756757 16.144144-27.675676 76.108108-87.63964 136.072072-166.054054 163.747748-11.531532 4.612613-18.45045 18.45045-13.837838 29.981982 2.306306 11.531532 16.144144 16.144144 27.675676 11.531532 89.945946-32.288288 161.441441-103.783784 193.72973-191.423424 4.612613-11.531532-2.306306-25.369369-13.837838-29.981982h-6.918919zM795.675676-35.747748h-668.828829c-69.189189 0-126.846847 57.657658-126.846847 126.846847 0 59.963964 39.207207 108.396396 92.252252 122.234234V471.63964c0 108.396396 85.333333 198.342342 191.423424 207.567567 20.756757 80.720721 94.558559 138.378378 177.585585 138.378379 83.027027 0 156.828829-57.657658 177.585586-138.378379 108.396396-9.225225 191.423423-99.171171 191.423423-207.567567v-258.306307c53.045045-13.837838 92.252252-64.576577 92.252253-122.234234 0-69.189189-57.657658-126.846847-126.846847-126.846847zM299.81982 633.081081c-89.945946 0-161.441441-71.495495-161.441442-161.441441v-297.513514l-20.756756-2.306306C76.108108 167.20720700000004 46.126126 134.91891899999996 46.126126 91.09909900000002c0-46.126126 34.594595-80.720721 80.720721-80.720721h668.828829c46.126126 0 80.720721 34.594595 80.72072 80.720721 0 43.81982-29.981982 76.108108-71.495495 80.720721l-20.756757 2.306306V471.63964c0 89.945946-71.495495 161.441441-161.441441 161.441441h-20.756757l-4.612613 20.756757c-9.225225 66.882883-69.189189 117.621622-136.072072 117.621621-66.882883 0-126.846847-50.738739-136.072072-117.621621l-2.306306-20.756757h-23.063063zM484.324324-128h-46.126126c-64.576577 0-115.315315 50.738739-115.315315 115.315315h46.126126c0-39.207207 29.981982-69.189189 69.189189-69.189189h46.126126c39.207207 0 69.189189 29.981982 69.18919 69.189189h46.126126c0-64.576577-50.738739-115.315315-115.315316-115.315315zM1017.081081 561.5855859999999c-9.225225 0-18.45045 6.918919-23.063063 16.144144C957.117117 711.495495 851.027027 815.279279 719.567568 849.873874c-11.531532 2.306306-20.756757 16.144144-16.144145 27.675676 2.306306 11.531532 16.144144 20.756757 27.675676 16.144144 149.90991-39.207207 267.531532-154.522523 309.045045-304.432433 2.306306-11.531532-4.612613-25.369369-16.144144-27.675675h-6.918919z"  horiz-adv-x="1040" />

    
    <glyph glyph-name="banjiguanli" unicode="&#59036;" d="M597.12 367.808c-106.176 0-192.512 86.336-192.512 192.512s86.4 192.512 192.512 192.512 192.512-86.336 192.512-192.512-86.4-192.512-192.512-192.512z m0 337.024C517.44 704.832 452.608 640 452.608 560.32S517.44 415.808 597.12 415.808s144.512 64.832 144.512 144.512-64.832 144.512-144.512 144.512zM264 15.36a24 24 0 0 0-24 24 375.808 375.808 0 0 0 375.424 375.296 24 24 0 0 0 0-48A327.68 327.68 0 0 1 288 39.36a23.936 23.936 0 0 0-24-24zM345.344 391.168c-89.472 0-151.936 69.504-151.936 169.152a169.344 169.344 0 0 0 169.152 169.152 24 24 0 0 0 0-48.064 121.28 121.28 0 0 1-121.152-121.152c0-60.288 32.128-121.152 103.936-121.152a24 24 0 0 0 0-47.936zM85.376 129.024a24 24 0 0 0-24 24c0 165.824 123.968 286.208 294.72 286.208a24 24 0 0 0 0-48.064c-145.28 0-246.72-97.92-246.72-238.208a24 24 0 0 0-24-23.936zM938.688 15.232a24.064 24.064 0 0 0-23.936 22.208 325.568 325.568 0 0 1-206.144 280.064 23.936 23.936 0 1 0 17.6 44.544 373.056 373.056 0 0 0 236.352-321.024 24 24 0 0 0-22.144-25.728l-1.728-0.064z"  horiz-adv-x="1024" />

    
    <glyph glyph-name="star-duty" unicode="&#58953;" d="M908.288 203.77599999999995a25.6 25.6 0 0 0-46.592 21.248 384 384 0 1 1-114.688-144.7424 25.6 25.6 0 0 0 31.3344-40.448 435.2 435.2 0 1 0 129.8944 163.9936zM304.128 572.2112a19.968 19.968 0 0 0 19.968 19.968h163.84v5.12a24.064 24.064 0 1 0 48.128 0v-5.12h161.792a19.968 19.968 0 0 0 0-39.936h-161.792v-23.552h135.936a19.712 19.712 0 1 0 0-39.424H536.064v-24.064h177.408a20.736 20.736 0 0 0 0-41.472h-402.944a20.736 20.736 0 0 0 0 41.472H487.936v24.064H350.464a19.712 19.712 0 1 0 0 39.424H487.936v23.552h-163.84a19.968 19.968 0 0 0-19.968 19.968z m370.688-201.728v-103.168a23.296 23.296 0 1 0-46.592 0v76.032a15.36 15.36 0 0 1-15.36 15.36H409.6a15.36 15.36 0 0 1-15.36-15.36v-80.128a23.296 23.296 0 1 0-46.592 0v107.264a30.72 30.72 0 0 0 30.72 30.72h265.728a30.72 30.72 0 0 0 30.72-30.72z m-131.072-106.496c33.024-10.4448 75.1104-26.9824 126.1056-49.7152l32.8192-15.0528a21.6064 21.6064 0 0 0 9.0112-31.488 27.7504 27.7504 0 0 0-36.0448-9.3184 1941.9648 1941.9648 0 0 1-25.9584 13.5168 914.432 914.432 0 0 1-132.5568 52.1216l26.624 39.936z m-54.784 73.216l47.104-4.608c-6.656-50.176-26.624-90.112-60.416-120.32-22.7328-20.7872-58.7264-37.9904-108.3904-51.7632-5.9904-1.6896-14.2336-3.7376-24.6784-6.144a29.9008 29.9008 0 0 0-34.3552 17.4592 20.48 20.48 0 0 0 14.592 27.9552c9.216 1.9456 16.5376 3.584 21.9136 4.9664 40.4992 10.4448 71.2704 23.8592 92.5184 39.7824 27.648 22.016 45.056 52.736 51.712 92.672z"  horiz-adv-x="1024" />

    
    <glyph glyph-name="star-subtask" unicode="&#58952;" d="M742.4 742.4h102.4a25.6 25.6 0 0 0 0 51.2h51.2a25.6 25.6 0 0 0 0-51.2H358.4v-614.4a51.2 51.2 0 0 1 51.2-51.2h233.6256a102.4 102.4 0 1 0 0-51.2H396.8C347.3408 25.600000000000023 307.2 71.42399999999998 307.2 128V742.4H128a25.6 25.6 0 0 0 0 51.2h614.4a25.6 25.6 0 0 0 0-51.2z m-99.1744-307.2a102.4 102.4 0 1 0 0-51.2H358.4V435.2h284.8256z m99.1744-76.8a51.2 51.2 0 1 1 0 102.4 51.2 51.2 0 0 1 0-102.4z m0-358.4a51.2 51.2 0 1 1 0 102.4 51.2 51.2 0 0 1 0-102.4z"  horiz-adv-x="1024" />

    
    <glyph glyph-name="task" unicode="&#58884;" d="M659.43466665 787.328l-191.04-124.032-20.864 32.16a38.272 38.272 0 0 1-52.64 11.168L172.26666665 562.0160000000001a37.824 37.824 0 0 1-11.2-52.416L556.42666665-99.20000000000005l63.584 41.28-19.52 30.08a38.272 38.272 0 0 1-1.056 1.728l-187.36 288.512 159.104 103.296 20.896-32.16c11.232-17.28 34.912-22.656 52.48-11.264l222.88 144.768c17.536 11.392 22.464 34.88 11.04 52.48l-166.592 256.512a38.176 38.176 0 0 1-52.448 11.264z"  horiz-adv-x="1024" />

    
    <glyph glyph-name="star-collect" unicode="&#58912;" d="M745.78432-16.696320000000014c-9.40544 0-20.37248 3.01056-29.7728 7.52128l-203.70944 97.73056-205.27104-97.73056c-20.37248-10.52672-47.00672-9.02144-65.81248 4.51072-18.80064 13.53728-29.7728 37.59104-25.06752 60.13952l42.30656 210.49856-161.39776 144.33792c-17.23904 16.5376-23.50592 42.10176-17.23904 63.15008 7.8336 22.5536 26.63936 39.0912 51.712 42.09664l224.0768 39.0912 100.28544 195.46112c10.96704 21.04832 32.90624 34.58048 56.40704 34.58048 23.50592 0 47.01184-13.53216 56.41216-34.58048l100.29056-195.46112 224.0768-37.58592c23.5008-3.00544 43.86816-19.54816 50.14016-42.10176 7.8336-22.5536 1.56672-46.61248-15.67232-63.14496l-161.39264-145.8432 40.73984-210.49856c4.70016-24.05376-6.272-46.60736-25.06752-60.13952-9.41056-7.51616-21.94432-12.032-36.0448-12.032z"  horiz-adv-x="1024" />

    
    <glyph glyph-name="all" unicode="&#59209;" d="M341.333 170.66700000000003h512C876.885 170.66700000000003 896 151.55200000000002 896 128c0-23.552-19.115-42.667-42.667-42.667h-512c-23.552 0-42.666 19.115-42.666 42.667 0 23.552 19.114 42.667 42.666 42.667zM128 128a1 1 0 1 1 85.333 0A1 1 0 1 1 128 128z m213.333 298.667h512C876.885 426.667 896 407.552 896 384c0-23.552-19.115-42.667-42.667-42.667h-512c-23.552 0-42.666 19.115-42.666 42.667 0 23.552 19.114 42.667 42.666 42.667zM128 384a1 1 0 1 1 85.333 0A1 1 0 1 1 128 384z m213.333 298.667h512C876.885 682.667 896 663.552 896 640c0-23.552-19.115-42.667-42.667-42.667h-512c-23.552 0-42.666 19.115-42.666 42.667 0 23.552 19.114 42.667 42.666 42.667zM128 640a1 1 0 1 1 85.333 0A1 1 0 1 1 128 640z"  horiz-adv-x="1024" />

    
    <glyph glyph-name="icon--" unicode="&#59272;" d="M401.92 519.68l84.48 102.4V256c0-15.36 10.24-25.6 25.6-25.6s25.6 10.24 25.6 25.6V622.08l84.48-102.4c10.24-10.24 25.6-10.24 35.84 0 10.24 10.24 10.24 25.6 0 35.84l-125.44 153.6c-5.12 5.12-12.8 7.68-20.48 7.68-7.68 0-15.36-2.56-20.48-7.68l-125.44-153.6c-10.24-10.24-10.24-25.6 0-35.84 10.24-10.24 25.6-10.24 35.84 0zM870.4 307.2c-15.36 0-25.6-10.24-25.6-25.6v-179.2H179.2v179.2c0 15.36-10.24 25.6-25.6 25.6s-25.6-10.24-25.6-25.6v-204.8c0-15.36 10.24-25.6 25.6-25.6h716.8c15.36 0 25.6 10.24 25.6 25.6v204.8c0 15.36-10.24 25.6-25.6 25.6z"  horiz-adv-x="1024" />

    
    <glyph glyph-name="star-again" unicode="&#58987;" d="M507.426133 739.5328c-4.2496 0.119467-8.413867-0.119467-12.6464-0.136533V839.338667c0 27.392-30.651733 43.6224-53.316266 28.245333L82.756267 623.9744000000001a34.133333 34.133333 0 0 1 0-56.4736l358.741333-243.592533c22.664533-15.394133 53.316267 0.836267 53.316267 28.245333v101.0688c172.834133 2.0992 316.5696-118.545067 323.515733-274.551467 5.3248-119.671467-71.424-225.757867-185.207467-274.756266-2.065067-0.887467-4.232533-2.628267-4.0448-6.178134 0.1536-2.901333 3.106133-3.754667 5.7344-2.9696C816.930133-51.67786699999999 951.005867 105.69386699999995 956.074667 295.082667c6.365867 238.660267-194.491733 437.640533-448.648534 444.450133z"  horiz-adv-x="1024" />

    
    <glyph glyph-name="edit" unicode="&#58911;" d="M800.20390625-9.183105469999987H223.15537109c-57.94628906 0-104.92470703 46.96435547-104.92470703 104.92382813V672.79101563c0 57.94365234 46.97841797 104.92382813 104.92382813 104.92382812h380.32382812c7.2421875 0 13.12470703-5.86757812 13.12470703-13.10888672V738.375c0-7.25625-5.88251953-13.12382812-13.12470703-13.12382812h-354.09375c-43.46191406 0-78.69287109-35.23007812-78.69287109-78.69111329V121.97167968999997c0-43.46191406 35.23095703-78.69287109 78.69287109-78.6928711h524.58837891c43.46191406 0 78.69111328 35.23095703 78.69111328 78.6928711V476.06542969c0 7.2421875 5.88251953 13.12382812 13.12382813 13.12382812h26.23271484c7.23955078 0 13.10712891-5.88339844 13.10712891-13.12382812v-380.32470703c-0.00087891-57.95947266-46.97929687-104.92382813-104.92382813-104.92382813z m46.2375 624.38378906L737.42539063 718.11357422l33.103125 33.23583984c25.59638672 25.68427734 67.6828125 26.36455078 94.03066406 1.49326172l13.62568359-12.85576172c26.33554687-24.87304688 26.94199219-65.86611328 1.34736328-91.56533203l-33.09082031-33.22089844z m-519.41513672-309.19921875l109.00195313-102.91464843-160.41445313-54.8850586 51.4125 157.80058594zM819.95996094 588.60058594L462.49648438 229.67285156000003l-109.00195313 102.91552735L710.95800781 691.51171875 819.95996094 588.60058594z"  horiz-adv-x="1024" />

    
    <glyph glyph-name="message-ding" unicode="&#58892;" d="M594.917 751.601c0 43.804-37.123 79.478-82.916 79.478-45.7 0-82.918-35.585-82.918-79.478 0-4.473 0.386-8.86 1.13-13.133-114.498-38.254-208.43-155.73-208.43-294.718v-109.423s0-157.59-40.389-158.964c-24.082 0-42.528-17.792-42.528-39.74 0-22.1 18.557-39.738 41.452-39.738h663.366c23.005 0 41.451 17.791 41.451 39.737 0 22.104-18.557 39.741-41.45 39.741-41.466 0-41.466 157.854-41.466 157.854v110.52c0 139.166-87.828 256.69-208.409 294.828a76.963 76.963 0 0 1 1.107 13.036z m41.46-695.39c-0.123-65.905-55.285-119.29-124.377-119.29-68.617 0-124.255 53.164-124.379 119.29h248.757z"  horiz-adv-x="1024" />

    
    <glyph glyph-name="create" unicode="&#58881;" d="M510.12507762-71.58469632000003c-250.93545643 0-454.35920043 203.46473813-454.35920043 454.43255751S259.18962119 837.26531584 510.12507762 837.26531584c250.93761365 0 454.36135765-203.44963527 454.36135765-454.41745465S761.06269127-71.58469632000003 510.12507762-71.58469632000003zM510.12507762 780.4652908099999c-219.57095083 0-397.56349099-178.01843029-397.56349099-397.61742962S290.55412565-14.771726790000002 510.12507762-14.771726790000002s397.56349099 178.02058752 397.56349099 397.61958798S729.69602845 780.4652908099999 510.12507762 780.4652908099999zM680.51004643 354.44137643L538.52508957 354.44137643l0-142.00653369c0-15.67685859-12.71452331-28.39569749-28.39785472-28.39569749-15.68333141 0-28.39569749 12.7188389-28.3956975 28.39569749l0 142.00653369-141.98927246 0c-15.68333141 0-28.39785472 12.71668053-28.39785472 28.40648476 0 15.67901582 12.71668053 28.39569749 28.39785472 28.3956975l141.98927246 0 0 142.0130065c0 15.67685859 12.71452331 28.38922467 28.3956975 28.38922468 15.68548864 0 28.39785472-12.71020771 28.39785472-28.38922468l0-142.0130065 141.984958 0c15.68548864 0 28.39785472-12.71668053 28.39785472-28.3956975C708.90790115 367.15805695999995 696.19553507 354.44137643 680.51004643 354.44137643z"  horiz-adv-x="1024" />

    
    <glyph glyph-name="tubiaolunkuo-" unicode="&#58889;" d="M640 620.8H192c-12.8 0-19.2 6.4-19.2 19.2s6.4 19.2 19.2 19.2h448c12.8 0 19.2-6.4 19.2-19.2s-6.4-19.2-19.2-19.2zM640 460.8H192c-12.8 0-19.2 6.4-19.2 19.2s6.4 19.2 19.2 19.2h448c12.8 0 19.2-6.4 19.2-19.2s-6.4-19.2-19.2-19.2zM448 300.79999999999995H192c-12.8 0-19.2 6.4-19.2 19.2s6.4 19.2 19.2 19.2h256c12.8 0 19.2-6.4 19.2-19.2s-6.4-19.2-19.2-19.2zM448 140.79999999999995H192c-12.8 0-19.2 6.4-19.2 19.2s6.4 19.2 19.2 19.2h256c12.8 0 19.2-6.4 19.2-19.2s-6.4-19.2-19.2-19.2zM454.4-64H192c-83.2 0-147.2 57.6-147.2 128V704c0 70.4 64 128 147.2 128h512c83.2 0 147.2-57.6 147.2-128v-204.8c0-12.8-6.4-19.2-19.2-19.2s-19.2 6.4-19.2 19.2V704c0 51.2-51.2 89.6-108.8 89.6H192c-57.6 0-108.8-38.4-108.8-89.6v-640c0-51.2 51.2-89.6 108.8-89.6h262.4c12.8 0 19.2-6.4 19.2-19.2s-6.4-19.2-19.2-19.2zM729.6-76.79999999999995c-134.4 0-243.2 108.8-243.2 243.2s108.8 243.2 243.2 243.2 243.2-108.8 243.2-243.2-108.8-243.2-243.2-243.2z m0 448c-115.2 0-204.8-89.6-204.8-204.8s89.6-204.8 204.8-204.8 204.8 89.6 204.8 204.8-89.6 204.8-204.8 204.8zM704 76.79999999999995c-64 0-115.2 51.2-115.2 115.2S640 307.20000000000005 704 307.20000000000005s115.2-51.2 115.2-115.2-51.2-115.2-115.2-115.2z m0 192c-44.8 0-76.8-32-76.8-76.8s32-76.8 76.8-76.8 76.8 32 76.8 76.8-32 76.8-76.8 76.8zM844.8 64c-6.4 0-6.4 0-12.8 6.4l-64 51.2c-6.4 6.4-12.8 19.2 0 25.6 6.4 6.4 19.2 6.4 25.6 0l64-51.2c6.4-6.4 12.8-19.2 0-25.6 0-6.4-6.4-6.4-12.8-6.4z"  horiz-adv-x="1024" />

    
    <glyph glyph-name="ding" unicode="&#58913;" d="M508.38298308-81.23543394000001l45.97713253 397.8345717 182.67799857-5.63061397c0 0 47.02121989 26.88524943 21.32921314 57.12649395l-97.58487901 93.03564124-20.13597044 282.42562996 53.8077877 60.44520018c0 0 35.7972808 53.84507653-35.87185847 60.55706668l-321.61619467 1.08137619c0 0-49.25854993-38.07189968-5.63061395-75.06242317l43.70251364-43.70251365L352.73938928 471.16135537 266.41573819 373.7256317c0 0-22.44787817-44.82117866 19.01730543-61.67573171l171.49134831 1.15595386L508.38298308-81.23543394000001 508.38298308-81.23543394000001z"  horiz-adv-x="1024" />

    
    <glyph glyph-name="ding-inclined" unicode="&#59155;" d="M99.85624999-22.6875l334.74375001 265.38750001 133.5375-142.03125002s55.74375001-15.1875 59.175 27.00000002l-3.43125001 143.77499998 197.83125001 228.20625001 86.175 5.00625001s67.6125 13.6125 18.61875001 72.73124999L684.74375001 820.78125001s-65.86875001 8.4375-60.86250002-52.36875001v-65.925L399.10624999 511.35l-138.59999998-8.38125002s-50.7375-16.875-32.17500002-60.86249997l130.21875001-128.47500002L99.85624999-22.6875z"  horiz-adv-x="1024" />

    
    <glyph glyph-name="admin-users" unicode="&#58890;" d="M638.2 357c-113.2 0-205.3 92.2-205.3 205.5S524.9 768 638.2 768s205.3-92.2 205.3-205.5S751.4 357 638.2 357z m0 361c-85.7 0-155.3-69.8-155.3-155.5S552.6 407 638.2 407s155.3 69.8 155.3 155.5S723.8 718 638.2 718zM316.3 1.7999999999999545h-50c0 54.4 9.7 107.2 28.9 156.9 18.6 48.2 45.2 91.4 79.2 128.6 34.1 37.4 73.9 66.7 118.2 87.3 46.1 21.4 95 32.2 145.5 32.2v-50c-85.5 0-166.1-36.6-226.8-103.2-61.2-67.1-95-156.6-95-251.8zM413.2 359.1c-39.6 8.1-75.7 29.9-101.6 61.2-26.2 31.8-40.7 72.1-40.7 113.4 0 41.3 14.4 81.6 40.7 113.4 25.9 31.4 61.9 53.1 101.5 61.2l10-49C364 647.2 321 594.4 321 533.7c0-60.7 43-113.5 102.3-125.6l-10.1-49zM423.3 659.3l-10 49c11.7 2.4 23.8 3.6 35.9 3.6v-50c-8.8 0-17.5-0.8-25.9-2.6zM179.7 57.799999999999955h-50c0 93.9 28.1 180.9 79.1 245 26.3 33 57.7 58.9 93.3 76.8C339.5 398.5 380.6 408 424 408v-50c-35.6 0-69-7.8-99.4-23.1-29.1-14.7-54.9-36-76.7-63.3-44-55.2-68.2-131.2-68.2-213.8zM610.1 202h200v-50h-200zM525.1 52h370v-50h-370z"  horiz-adv-x="1024" />

    
    <glyph glyph-name="delete" unicode="&#58903;" d="M164.922 631.794v49.773c0 27.489 22.284 49.773 49.773 49.773h199.093c-27.489 0-49.773 22.284-49.773 49.773s22.284 49.773 49.773 49.773h199.093c27.489 0 49.773-22.284 49.773-49.773s-22.284-49.773-49.773-49.773h199.093c27.489 0 49.773-22.284 49.773-49.773v-49.773H164.922z m647.051-597.278c0-54.978-44.568-99.546-99.546-99.546H314.241c-54.978 0-99.546 44.568-99.546 99.546V582.021h597.279l-0.001-547.505zM463.561 432.702c-0.01 27.489-22.302 49.765-49.791 49.756-27.475-0.01-49.746-22.28-49.756-49.756v-298.639c0.01-27.489 22.302-49.765 49.791-49.755 27.475 0.01 49.746 22.28 49.755 49.755V432.702z m199.093 0c-0.01 27.489-22.302 49.765-49.791 49.756-27.475-0.01-49.746-22.28-49.755-49.756v-298.639c0.01-27.489 22.302-49.765 49.791-49.755 27.475 0.01 49.746 22.28 49.756 49.755V432.702z"  horiz-adv-x="1024" />

    
    <glyph glyph-name="star-self" unicode="&#58947;" d="M907.264-70.65599999999995H114.688c-16.384 0-32.768 8.192-43.008 20.48-10.24 14.336-14.336 30.72-10.24 47.104 40.96 208.896 210.944 364.544 415.744 380.928 68.608 0 142.848-8.704 217.088-38.912 21.504-8.704 28.672-14.336 40.96-20.48 118.784-67.584 200.704-184.32 227.328-321.536 4.096-16.384 0-32.768-12.288-47.104-10.24-12.288-26.624-20.48-43.008-20.48zM512 359.424c-129.024 0-235.52 106.496-235.52 235.52s106.496 235.52 235.52 235.52 235.52-106.496 235.52-235.52-106.496-235.52-235.52-235.52z"  horiz-adv-x="1024" />

    
    <glyph glyph-name="star-task" unicode="&#59077;" d="M796.548 716.813h-28.327c-0.59 31.975-26.774 57.804-58.873 57.804h-50.703v1.386c0 32.48-26.435 58.9-58.902 58.9H427.618c-32.468 0-58.902-26.42-58.902-58.9l-53.5-1.386c-32.126 0-58.312-25.83-58.9-57.804h-28.327c-35.073 0-63.619-28.533-63.619-63.618v-650.866c0-35.072 28.546-63.618 63.619-63.618h568.559c35.072 0 63.618 28.546 63.618 63.618V653.1949999999999c0 35.085-28.546 63.618-63.618 63.618z m-484.101-1.097c0 1.509 1.234 2.742 2.77 2.742h81.578c15.522 0 28.08 12.574 28.08 28.08v29.465a2.75 2.75 0 0 0 2.743 2.742h172.125a2.75 2.75 0 0 0 2.742-2.742v-29.465c0-15.506 12.559-28.08 28.08-28.08h78.782a2.75 2.75 0 0 0 2.742-2.742v-69.363a2.75 2.75 0 0 0-2.742-2.742h-394.13c-1.536 0-2.77 1.234-2.77 2.742v69.363z m491.56-713.387c0-4.113-3.345-7.459-7.459-7.459h-568.56c-4.112 0-7.458 3.345-7.458 7.46V653.194c0 4.113 3.345 7.459 7.459 7.459h28.299v-14.3c0-32.482 26.434-58.903 58.928-58.903h394.132c32.467 0 58.902 26.42 58.902 58.902v14.3h28.299c4.113 0 7.459-3.344 7.459-7.458v-650.866zM520.494 198.284H360.243c-15.521 0-28.08-12.573-28.08-28.08 0-15.507 12.559-28.08 28.08-28.08h160.252c15.521 0 28.08 12.573 28.08 28.08 0 15.507-12.56 28.08-28.08 28.08z m146.624 151.915H360.243c-15.521 0-28.08-12.572-28.08-28.08 0-15.506 12.559-28.08 28.08-28.08h306.875c15.52 0 28.08 12.573 28.08 28.08s-12.56 28.08-28.08 28.08z m0 146.364H360.243c-15.521 0-28.08-12.572-28.08-28.08 0-15.507 12.559-28.08 28.08-28.08h306.875c15.52 0 28.08 12.573 28.08 28.08 0 15.507-12.56 28.08-28.08 28.08z"  horiz-adv-x="1024" />

    
    <glyph glyph-name="star-home" unicode="&#58885;" d="M562.805 815.3025a72.135 72.135 0 0 1-96.93 0L73.925 443.13a36.1575 36.1575 0 0 1 48.42-53.7075l6.2325 5.9175V6.899999999999977a72.315 72.315 0 0 1 72.315-72.405h210.4425v217.71a50.9175 50.9175 0 0 0 50.94 50.985h99.0225a50.9175 50.9175 0 0 0 50.94-50.985v-217.71h215.4375a72.315 72.315 0 0 1 72.3375 72.405V390.5925c16.065-14.535 38.8575-13.4325 52.2225 1.4625a36.1575 36.1575 0 0 1-2.61 51.075L562.805 815.28z"  horiz-adv-x="1024" />

    
    <glyph glyph-name="phone" unicode="&#58880;" d="M808.56694898-58.202504530000056l-15.88751474 5.29583786C117.46004082 153.63103061000004 75.09333333 664.67943424 72.44541383 669.97527325V701.75030272l177.41058617 132.39596032 182.70642403-238.31272789-92.6771712-103.26884808c31.77503061-108.56468707 198.59393991-227.72105102 275.38359524-275.38359637l124.45220295 84.73341383 217.12937301-193.2981009-148.28347505-166.81890816zM125.40379819 672.62319161c2.6479195-29.12711111 50.31046485-473.97753515 667.27563605-669.92355556l95.3250907 100.62092971-145.63555555 129.74804082-119.15636281-79.43757597-13.23959637 7.94375737c-10.59167687 7.94375737-283.32735374 166.8189093-317.75030272 330.98989909l-2.64791951 13.23959524 82.08549433 90.02925284L247.2080805 757.3566065800001l-121.80428231-84.73341497z"  horiz-adv-x="1024" />

    
    <glyph glyph-name="admin-home" unicode="&#59262;" d="M963.12888889 367.84355555l-35.04355556-41.75644444c-2.95822222-3.41333333-7.05422222-5.46133333-11.83288888-6.144h-1.70666667c-4.89244445 0-8.87466667 1.25155555-11.83288889 3.86844444L512 649.67111111 121.28711111 323.81155555c-4.55111111-2.95822222-8.98844445-4.32355555-13.53955556-3.86844444-4.89244445 0.68266667-8.87466667 2.84444445-11.83288888 6.144l-35.04355556 41.75644444c-2.95822222 3.75466667-4.32355555 8.192-3.86844444 13.312 0.34133333 5.12 2.50311111 9.10222222 6.144 12.06044445l405.95911111 338.14755555c11.94666667 9.89866667 26.28266667 14.67733333 42.89422222 14.67733334 16.49777778 0 30.83377778-4.89244445 42.89422222-14.67733334l137.78488889-115.1431111v110.13688888c0 5.23377778 1.70666667 9.67111111 5.12 12.97066667 3.41333333 3.41333333 7.73688889 5.12 12.97066667 5.12H819.2c5.23377778 0 9.67111111-1.70666667 12.97066667-5.12 3.41333333-3.41333333 5.12-7.73688889 5.12-12.97066667v-230.4l123.79022222-102.74133333c3.75466667-2.95822222 5.80266667-7.05422222 6.144-12.06044445 0.22755555-5.12-1.13777778-9.55733333-4.096-13.312z m-125.83822222-38.912v-271.01866666c0-9.78488889-3.52711111-18.31822222-10.69511112-25.37244444s-15.70133333-10.69511111-25.37244444-10.69511112H584.36266667V238.47822222000002H439.63733333v-216.74666667H223.00444445c-9.78488889 0-18.31822222 3.52711111-25.37244445 10.69511112-7.168 7.168-10.69511111 15.58755555-10.69511111 25.37244444V328.93155555c0 0.34133333 0.11377778 0.91022222 0.22755556 1.70666667 0.22755555 0.68266667 0.22755555 1.25155555 0.22755555 1.70666667L512 599.83644445l324.72177778-267.71911112c0.34133333-0.56888889 0.56888889-1.70666667 0.56888889-3.18577778z"  horiz-adv-x="1024" />

    
    <glyph glyph-name="work" unicode="&#58887;" d="M399.42677393 834H135.83380362c-34.49772158 0-73.76871357-40.48600606-73.76871358-74.78845752v-261.37990899c0-34.32414815 38.12106709-74.78845752 72.59709287-74.78845752h263.48448691c34.4760249 0 73.76871357 39.05402432 73.7687127 73.46496007V760.49164658C471.91538252 794.79409893 433.88110214 834 399.38338057 834m489.93273984 0H625.85333018c-34.51941826 0-73.92059033-40.48600606-73.92058945-74.78845752v-261.37990899c0-34.32414815 38.05597705-74.78845752 72.59709198-74.78845752h263.70145372c34.49772158 0 73.87719698 39.05402432 73.87719697 73.46496007V760.49164658C962.1084834 794.79409893 923.98741631 834 889.46799717 834M399.42677393 345.06530741999995H135.83380362c-34.49772158 0-73.76871357-40.50770273-73.76871358-74.78845752v-261.48839238c0-34.32414815 38.12106709-74.7016708 72.59709287-74.7016708h263.48448691c34.4760249 0 73.76871357 39.05402432 73.7687127 73.39987002V271.44847059999995c0 34.38923818-38.03428037 73.61683682-72.53200195 73.61683682m481.18897792-44.39140839c5.64113672 0 15.18767666-4.01388574 24.10501202-13.0180087s13.01800781-19.11477568 13.01800781-24.90778916v-246.4308958c0-5.61944003-4.12236914-15.46973349-13.40854804-24.64742901s-19.11477568-13.32176221-24.90778916-13.32176133H633.40377558c-5.44586661 0-14.92731651 4.23085253-23.86634853 13.40854805-9.11260547 9.65502246-13.21327792 19.85246279-13.2132788 25.77565635v244.0876544c0 5.81471016 4.20915586 15.90366709 13.58212235 25.47190283s19.2015624 13.66890908 24.73421573 13.66890909h245.93187216z m0 488.99978261c5.64113672 0 15.18767666-4.01388574 24.10501202-13.01800781s13.01800781-19.11477568 13.01800781-24.92948584v-246.40919912c0-5.61944003-4.12236914-15.46973349-13.40854804-24.647429s-19.11477568-13.32176221-24.90778916-13.32176221H633.40377558c-5.44586661 0-14.92731651 4.33933594-23.86634853 13.40854892-9.11260547 9.65502246-13.21327792 19.85246279-13.2132788 25.77565635V750.57626396c0 5.81471016 4.20915586 15.90366709 13.58212235 25.47190284s19.2015624 13.66890908 24.73421573 13.6689082h245.93187216z m-490.01952743 0c5.61944003 0 15.18767666-4.01388574 24.10501201-13.01800781s13.01800781-19.11477568 13.01800869-24.92948584v-246.40919912c0-5.61944003-4.12236914-15.46973349-13.40854893-24.647429s-19.11477568-13.32176221-24.92948583-13.32176221H143.42764151c-5.44586661 0-14.92731651 4.33933594-23.86634854 13.40854892-9.15599883 9.65502246-13.27836885 19.85246279-13.27836797 25.77565635V750.57626396c0 5.81471016 4.20915586 15.90366709 13.58212148 25.47190284s19.22325908 13.66890908 24.7559124 13.6689082h245.9101755z m0-488.89129922c5.61944003 0 15.18767666-4.03558242 24.10501201-13.01800869s13.01800781-19.11477568 13.01800869-24.92948584v-246.38750244c0-5.64113672-4.12236914-15.46973349-13.40854893-24.66912568s-19.11477568-13.30006553-24.92948583-13.30006466H143.42764151c-5.44586661 0-14.92731651 4.20915586-23.86634854 13.40854805-9.15599883 9.65502246-13.27836885 19.78737276-13.27836797 25.68886963V261.61987382999996c0 5.81471016 4.20915586 15.92536377 13.58212148 25.47190283s19.15816904 13.58212237 24.69082237 13.58212237z m498.80668271 44.1744416H625.85333018c-34.51941826 0-73.87719698-40.46430937-73.8771961-74.78845751v-261.37990899c0-34.32414815 38.05597705-74.78845752 72.59709199-74.78845752h263.65806036c34.49772158 0 73.87719698 39.1842044 73.87719697 73.48665674V271.42677392999997c0 34.34584482-38.12106709 73.5300501-72.64048623 73.5300501z m0 0"  horiz-adv-x="1024" />

    
    <glyph glyph-name="could-upload" unicode="&#59411;" d="M384 0c-11.2 0-19.2 9.6-19.2 19.2v288c0 11.2 9.6 19.2 19.2 19.2s19.2-9.6 19.2-19.2v-288c0-9.6-8-19.2-19.2-19.2zM480 208c-6.4 0-11.2 1.6-14.4 6.4L384 308.79999999999995l-81.6-94.4c-8-8-19.2-9.6-28.8-1.6-8 6.4-9.6 19.2-1.6 28.8l96 112c8 9.6 22.4 9.6 30.4 0l96-112c6.4-8 6.4-20.8-1.6-28.8-3.2-3.2-8-4.8-12.8-4.8zM640 16c-11.2 0-19.2 9.6-19.2 19.2v288c0 11.2 9.6 19.2 19.2 19.2s19.2-9.6 19.2-19.2v-288c0-9.6-8-19.2-19.2-19.2zM640-16c-6.4 0-11.2 3.2-14.4 6.4l-96 112c-6.4 8-6.4 20.8 1.6 28.8s20.8 6.4 28.8-1.6l81.6-94.4 81.6 94.4c6.4 8 19.2 9.6 28.8 1.6 8-6.4 9.6-19.2 1.6-28.8l-96-112c-6.4-3.2-11.2-6.4-17.6-6.4zM740.8 484.8c0 3.2-1.6 4.8-1.6 8 0 132.8-102.4 240-227.2 240s-227.2-107.2-227.2-240c0-3.2 0-6.4-1.6-8 0-3.2 1.6-4.8 1.6-8 0-16-12.8-28.8-28.8-28.8-108.8 0-195.2-92.8-195.2-206.4S147.2 35.200000000000045 256 35.200000000000045c16 0 28.8-12.8 28.8-28.8s-12.8-30.4-28.8-30.4C116.8-24 3.2 94.39999999999998 3.2 241.60000000000002c0 136 97.6 249.6 224 264 4.8 160 131.2 288 283.2 288s278.4-128 283.2-288c126.4-14.4 224-126.4 224-264 0-145.6-113.6-265.6-252.8-265.6-16 0-28.8 12.8-28.8 28.8s12.8 28.8 28.8 28.8C873.6 33.60000000000002 960 126.39999999999998 960 240s-83.2 206.4-192 206.4c-16 0-28.8 12.8-28.8 28.8 0 4.8 1.6 6.4 1.6 9.6z"  horiz-adv-x="1024" />

    
    <glyph glyph-name="star-classify" unicode="&#58886;" d="M349.75939941 805.875H219.90100097C148.5447998 805.875 90.125 747.4552002 90.125 676.09899903V546.32299805c0-71.35620117 58.41979981-129.77600098 129.77600098-129.77600098H349.67700195c71.35620117 0 129.77600098 58.41979981 129.77600098 129.77600098V676.09899903C479.53540039 747.4552002 421.11560058 805.875 349.75939941 805.875z m454.33959962 0H674.24060059c-71.35620117 0-129.77600098-58.41979981-129.77600098-129.77600098V546.32299805c0-71.35620117 58.41979981-129.77600098 129.77600098-129.77600098h129.77600097c71.35620117 0 129.77600098 58.41979981 129.77600098 129.77600098V676.09899903C933.875 747.4552002 875.4552002 805.875 804.09899903 805.875zM349.75939941 351.53540038999995H219.90100097C148.5447998 351.53540038999995 90.125 293.11560058 90.125 221.75939941000001v-129.77600097C90.125 20.544799799999964 148.5447998-37.875 219.90100097-37.875H349.67700195c71.35620117 0 129.77600098 58.41979981 129.77600098 129.77600098V221.75939941000001c0.08239747 71.35620117-58.33740234 129.77600098-129.69360352 129.77600098z m454.33959962 0H674.24060059c-71.35620117 0-129.77600098-58.41979981-129.77600098-129.77600098v-129.77600097c0-71.35620117 58.41979981-129.77600098 129.77600098-129.77600098h129.77600097c71.35620117 0 129.77600098 58.41979981 129.77600098 129.77600098V221.75939941000001c0.08239747 71.35620117-58.33740234 129.77600098-129.69360352 129.77600098z"  horiz-adv-x="1024" />

    
    <glyph glyph-name="close" unicode="&#58882;" d="M574.55 373.65L904.4 703.5c16.65 16.65 16.65 44.1 0 60.75l-1.8 1.8c-16.65 16.65-44.1 16.65-60.75 0L512 435.75 182.15 766.05c-16.65 16.65-44.1 16.65-60.75 0l-1.8-1.8c-17.1-16.65-17.1-44.1 0-60.75l329.85-329.85L119.6 43.799999999999955c-16.65-16.65-16.65-44.1 0-60.75l1.8-1.8c16.65-16.65 44.1-16.65 60.75 0L512 311.1 841.85-18.75c16.65-16.65 44.1-16.65 60.75 0l1.8 1.8c16.65 16.65 16.65 44.1 0 60.75L574.55 373.65z"  horiz-adv-x="1024" />

    
    <glyph glyph-name="wenjianguanli" unicode="&#58906;" d="M263.68 896H64a64 64 0 0 1-64-64v-896a64 64 0 0 1 64-64h199.68a64 64 0 0 1 64 64V832a64 64 0 0 1-64 64z m0-992V-64H64V832h199.68v-896zM618.88 896H419.2a64 64 0 0 1-64-64v-896a64 64 0 0 1 64-64h199.68a64 64 0 0 1 64 64V832a64 64 0 0 1-64 64z m0-992V-64H419.2V832h199.68v-896zM974.72 896h-199.68a64 64 0 0 1-64-64v-896a64 64 0 0 1 64-64h199.68a64 64 0 0 1 64 64V832a64 64 0 0 1-64 64z m0-992V-64h-199.68V832h199.68v-896zM99.84 718.72m32 0l64 0q32 0 32-32l0-351.36q0-32-32-32l-64 0q-32 0-32 32l0 351.36q0 32 32 32ZM163.84 153.6m-64 0a64 64 0 1 1 128 0 64 64 0 1 1-128 0ZM455.04 712.32m32 0l64 0q32 0 32-32l0-351.36q0-32-32-32l-64 0q-32 0-32 32l0 351.36q0 32 32 32ZM519.04 148.48m-64 0a64 64 0 1 1 128 0 64 64 0 1 1-128 0ZM810.88 712.32m32 0l64 0q32 0 32-32l0-351.36q0-32-32-32l-64 0q-32 0-32 32l0 351.36q0 32 32 32ZM874.88 148.48m-64 0a64 64 0 1 1 128 0 64 64 0 1 1-128 0Z"  horiz-adv-x="1038" />

    
    <glyph glyph-name="home" unicode="&#59412;" d="M963.12888889 367.84355555l-35.04355556-41.75644444c-2.95822222-3.41333333-7.05422222-5.46133333-11.83288888-6.144h-1.70666667c-4.89244445 0-8.87466667 1.25155555-11.83288889 3.86844444L512 649.67111111 121.28711111 323.81155555c-4.55111111-2.95822222-8.98844445-4.32355555-13.53955556-3.86844444-4.89244445 0.68266667-8.87466667 2.84444445-11.83288888 6.144l-35.04355556 41.75644444c-2.95822222 3.75466667-4.32355555 8.192-3.86844444 13.312 0.34133333 5.12 2.50311111 9.10222222 6.144 12.06044445l405.95911111 338.14755555c11.94666667 9.89866667 26.28266667 14.67733333 42.89422222 14.67733334 16.49777778 0 30.83377778-4.89244445 42.89422222-14.67733334l137.78488889-115.1431111v110.13688888c0 5.23377778 1.70666667 9.67111111 5.12 12.97066667 3.41333333 3.41333333 7.73688889 5.12 12.97066667 5.12H819.2c5.23377778 0 9.67111111-1.70666667 12.97066667-5.12 3.41333333-3.41333333 5.12-7.73688889 5.12-12.97066667v-230.4l123.79022222-102.74133333c3.75466667-2.95822222 5.80266667-7.05422222 6.144-12.06044445 0.22755555-5.12-1.13777778-9.55733333-4.096-13.312z m-125.83822222-38.912v-271.01866666c0-9.78488889-3.52711111-18.31822222-10.69511112-25.37244444s-15.70133333-10.69511111-25.37244444-10.69511112H584.36266667V238.47822222000002H439.63733333v-216.74666667H223.00444445c-9.78488889 0-18.31822222 3.52711111-25.37244445 10.69511112-7.168 7.168-10.69511111 15.58755555-10.69511111 25.37244444V328.93155555c0 0.34133333 0.11377778 0.91022222 0.22755556 1.70666667 0.22755555 0.68266667 0.22755555 1.25155555 0.22755555 1.70666667L512 599.83644445l324.72177778-267.71911112c0.34133333-0.56888889 0.56888889-1.70666667 0.56888889-3.18577778z"  horiz-adv-x="1024" />

    


  </font>
</defs>
</svg>
